<?xml version="1.0" encoding="UTF-8"?>
<svg width="32px" height="32px" viewBox="0 0 32 32" version="1.1" xmlns="http://www.w3.org/2000/svg" xmlns:xlink="http://www.w3.org/1999/xlink">
    <!-- Generator: Sketch 61.1 (89650) - https://sketch.com -->
    <title>Group 6</title>
    <desc>Created with Sketch.</desc>
    <defs>
        <polygon id="path-1" points="0 0 31.9999 0 31.9999 31.9998 0 31.9998"></polygon>
    </defs>
    <g id="User-activation" stroke="none" stroke-width="1" fill="none" fill-rule="evenodd">
        <g id="Group-6">
            <g id="Group-3">
                <mask id="mask-2" fill="white">
                    <use xlink:href="#path-1"></use>
                </mask>
                <g id="Clip-2"></g>
                <path d="M15.9999,-0.0002 L15.9999,-0.0002 C7.1639,-0.0002 -0.0001,7.1638 -0.0001,15.9998 C-0.0001,24.8368 7.1639,31.9998 15.9999,31.9998 C24.8369,31.9998 31.9999,24.8368 31.9999,15.9998 C31.9999,7.1638 24.8369,-0.0002 15.9999,-0.0002 M15.9999,2.2858 C23.5619,2.2858 29.7139,8.4378 29.7139,15.9998 C29.7139,23.5628 23.5619,29.7138 15.9999,29.7138 C8.4379,29.7138 2.2859,23.5618 2.2859,15.9998 C2.2859,8.4378 8.4379,2.2858 15.9999,2.2858" id="Fill-1" fill="#FFFFFF" mask="url(#mask-2)"></path>
            </g>
            <path d="M15.9994,18.7533 C14.4214,18.7533 13.1424,17.4743 13.1424,15.8963 C13.1424,14.3183 14.4214,13.0393 15.9994,13.0393 C17.5774,13.0393 18.8564,14.3183 18.8564,15.8963 C18.8564,17.4743 17.5774,18.7533 15.9994,18.7533 M18.3994,21.0913 L13.5994,21.0913 C13.3474,21.0913 13.1424,20.8863 13.1424,20.6333 C13.1424,20.3813 13.3474,20.1763 13.5994,20.1763 L18.3994,20.1763 C18.6524,20.1763 18.8564,20.3813 18.8564,20.6333 C18.8564,20.8863 18.6524,21.0913 18.3994,21.0913 M21.7984,15.7963 C19.6254,13.5753 21.5034,11.6283 21.7704,10.5243 C21.9944,9.5943 22.0084,8.5713 20.8064,8.1993 C19.6244,7.8343 19.0814,9.3543 17.9714,9.2483 C17.7544,9.2283 17.6144,9.1383 17.4854,9.0433 L17.4854,1.1083 L14.5144,1.1083 L14.5144,6.1583 C14.1244,6.1903 13.5504,6.2613 12.8964,6.4413 C12.1204,6.6563 9.1544,7.9723 10.4584,10.8923 C11.7624,13.8123 11.0254,14.4083 9.4094,16.4493 C7.7934,18.4903 7.9784,20.5003 7.9784,20.5003 C7.9784,24.1253 11.5714,27.0643 16.0024,27.0643 C20.4344,27.0643 24.0274,24.1253 24.0274,20.5003 C24.0274,20.5003 24.1304,18.1823 21.7984,15.7963" id="Fill-4" fill="#FFFFFF"></path>
        </g>
    </g>
</svg>