<svg id="icone" xmlns="http://www.w3.org/2000/svg" viewBox="0 0 38.33 38.33"><defs><style>.cls-1,.cls-2{fill:#fff;}.cls-1{stroke:#fff;stroke-miterlimit:10;stroke-width:1.5px;}</style></defs><title>Volumio_icon_volumio-icon</title><path class="cls-1" d="M6534.44,71.52a1.37,1.37,0,0,1-1.18-.68l-3.55-6.14a1.36,1.36,0,1,1,2.36-1.36l3.55,6.14A1.36,1.36,0,0,1,6534.44,71.52Z" transform="translate(-6516.63 -53.61)"/><path class="cls-2" d="M6535.8,58.61a14.17,14.17,0,1,1-14.17,14.17,14.17,14.17,0,0,1,14.17-14.17m0-5A19.17,19.17,0,1,0,6555,72.77a19.19,19.19,0,0,0-19.17-19.17h0Z" transform="translate(-6516.63 -53.61)"/></svg>