<?xml version="1.0" encoding="UTF-8"?>
<svg width="36px" height="36px" viewBox="0 0 36 36" version="1.1" xmlns="http://www.w3.org/2000/svg" xmlns:xlink="http://www.w3.org/1999/xlink">
    <!-- Generator: Sketch 61.1 (89650) - https://sketch.com -->
    <title>Group 12</title>
    <desc>Created with Sketch.</desc>
    <g id="User-activation" stroke="none" stroke-width="1" fill="none" fill-rule="evenodd">
        <g id="Design---signed-out-sign-up-1-2" transform="translate(-1030.000000, -185.000000)" fill="#999999">
            <g id="Group-12" transform="translate(1030.000000, 185.000000)">
                <path d="M18.0001,-0.0002 L18.0001,-0.0002 C8.0591,-0.0002 0.0001,8.0588 0.0001,17.9998 C0.0001,27.9408 8.0591,35.9998 18.0001,35.9998 C27.9411,35.9998 36.0001,27.9408 36.0001,17.9998 C36.0001,8.0588 27.9411,-0.0002 18.0001,-0.0002 M18.0001,2.5718 C26.5071,2.5718 33.4291,9.4928 33.4291,17.9998 C33.4291,26.5068 26.5071,33.4288 18.0001,33.4288 C9.4931,33.4288 2.5711,26.5068 2.5711,17.9998 C2.5711,9.4928 9.4931,2.5718 18.0001,2.5718" id="Fill-1"></path>
                <path d="M14.2354,24.095 C14.2354,25.516 13.0834,26.668 11.6614,26.668 C10.2404,26.668 9.0884,25.516 9.0884,24.095 C9.0884,22.674 10.2404,21.521 11.6614,21.521 C13.0834,21.521 14.2354,22.674 14.2354,24.095" id="Fill-4"></path>
                <path d="M24.5162,21.5213 C24.5162,22.9423 23.3642,24.0953 21.9422,24.0953 C20.5212,24.0953 19.3692,22.9423 19.3692,21.5213 C19.3692,20.1003 20.5212,18.9473 21.9422,18.9473 C23.3642,18.9473 24.5162,20.1003 24.5162,21.5213" id="Fill-6"></path>
                <polygon id="Fill-8" points="23.229 21.521 24.516 21.521 24.516 8.651 23.229 8.651"></polygon>
                <polygon id="Fill-10" points="12.948 24.095 14.235 24.095 14.235 11.225 12.948 11.225"></polygon>
                <polygon id="Fill-11" points="12.9415 10.7234 12.9415 14.6234 24.5165 11.7284 24.5165 7.8274"></polygon>
            </g>
        </g>
    </g>
</svg>