<?xml version="1.0" encoding="UTF-8"?>
<svg width="16px" height="16px" viewBox="0 0 16 16" version="1.1" xmlns="http://www.w3.org/2000/svg" xmlns:xlink="http://www.w3.org/1999/xlink">
    <!-- Generator: Sketch 61.2 (89653) - https://sketch.com -->
    <title>Group 16</title>
    <desc>Created with Sketch.</desc>
    <defs>
        <polygon id="path-1" points="0 0 15.9999 0 15.9999 15.9998 0 15.9998"></polygon>
        <polygon id="path-3" points="0 16 16 16 16 0 0 0"></polygon>
    </defs>
    <g id="User-activation" stroke="none" stroke-width="1" fill="none" fill-rule="evenodd">
        <g id="Design---signed-out-sign-up-2-2" transform="translate(-16.000000, -502.000000)">
            <g id="Group-16" transform="translate(16.000000, 502.000000)">
                <g id="Group-3">
                    <mask id="mask-2" fill="white">
                        <use xlink:href="#path-1"></use>
                    </mask>
                    <g id="Clip-2"></g>
                    <path d="M7.9999,15.9998 L7.9999,15.9998 C3.5819,15.9998 -0.0001,12.4178 -0.0001,7.9998 C-0.0001,3.5818 3.5819,-0.0002 7.9999,-0.0002 C12.4179,-0.0002 15.9999,3.5818 15.9999,7.9998 C15.9999,12.4178 12.4179,15.9998 7.9999,15.9998" id="Fill-1" fill="#000000" mask="url(#mask-2)"></path>
                </g>
                <path d="M7.9999,14.4998 C4.4159,14.4998 1.4999,11.5838 1.4999,7.9998 C1.4999,4.4158 4.4159,1.4998 7.9999,1.4998 C11.5839,1.4998 14.4999,4.4158 14.4999,7.9998 C14.4999,11.5838 11.5839,14.4998 7.9999,14.4998" id="Fill-4" fill="#000000"></path>
                <path d="M7.9999,0.9998 L7.9999,0.9998 C4.1339,0.9998 0.9999,4.1338 0.9999,7.9998 C0.9999,11.8658 4.1339,14.9998 7.9999,14.9998 C11.8659,14.9998 14.9999,11.8658 14.9999,7.9998 C14.9999,4.1338 11.8659,0.9998 7.9999,0.9998 M7.9999,1.9998 C11.3089,1.9998 13.9999,4.6918 13.9999,7.9998 C13.9999,11.3088 11.3089,13.9998 7.9999,13.9998 C4.6919,13.9998 1.9999,11.3088 1.9999,7.9998 C1.9999,4.6918 4.6919,1.9998 7.9999,1.9998" id="Fill-6" fill="#54C688"></path>
                <path d="M6.536,10.3704 C6.536,10.9234 6.088,11.3704 5.535,11.3704 C4.982,11.3704 4.534,10.9234 4.534,10.3704 C4.534,9.8174 4.982,9.3694 5.535,9.3694 C6.088,9.3694 6.536,9.8174 6.536,10.3704" id="Fill-8" fill="#54C688"></path>
                <path d="M10.5341,9.3694 C10.5341,9.9224 10.0861,10.3704 9.5331,10.3704 C8.9801,10.3704 8.5321,9.9224 8.5321,9.3694 C8.5321,8.8164 8.9801,8.3684 9.5331,8.3684 C10.0861,8.3684 10.5341,8.8164 10.5341,9.3694" id="Fill-10" fill="#54C688"></path>
                <mask id="mask-4" fill="white">
                    <use xlink:href="#path-3"></use>
                </mask>
                <g id="Clip-13"></g>
                <polygon id="Fill-12" fill="#54C688" mask="url(#mask-4)" points="10.034 9.369 10.534 9.369 10.534 4.364 10.034 4.364"></polygon>
                <polygon id="Fill-14" fill="#54C688" mask="url(#mask-4)" points="6.036 10.37 6.536 10.37 6.536 5.365 6.036 5.365"></polygon>
                <polygon id="Fill-15" fill="#54C688" mask="url(#mask-4)" points="6.0326 5.1702 6.0326 6.6872 10.5336 5.5612 10.5336 4.0442"></polygon>
            </g>
        </g>
    </g>
</svg>