<?xml version="1.0" encoding="UTF-8"?>
<svg width="28px" height="36px" viewBox="0 0 28 36" version="1.1" xmlns="http://www.w3.org/2000/svg" xmlns:xlink="http://www.w3.org/1999/xlink">
    <!-- Generator: Sketch 61.1 (89650) - https://sketch.com -->
    <title>Group 11</title>
    <desc>Created with Sketch.</desc>
    <g id="User-activation" stroke="none" stroke-width="1" fill="none" fill-rule="evenodd">
        <g id="Design---signed-out-sign-up-2-2" transform="translate(-1030.000000, -309.000000)">
            <g id="Group-11" transform="translate(1030.000000, 309.000000)">
                <path d="M13.3997,10.9781 C13.3997,10.9781 15.4637,10.4921 15.2397,7.9931 C15.0157,5.4931 12.5277,2.9861 14.2477,0.7571" id="Stroke-1" stroke="#999999" stroke-width="1.514" stroke-linecap="round"></path>
                <path d="M8.3826,14.6539 C8.3826,14.6539 10.4456,14.1679 10.2226,11.6689 C9.9986,9.1699 7.5106,6.6619 9.2306,4.4329" id="Stroke-3" stroke="#999999" stroke-width="1.514" stroke-linecap="round"></path>
                <path d="M23.9622,24.7959 C23.0702,24.7959 22.3472,24.0729 22.3472,23.1809 C22.3472,22.2889 23.0702,21.5659 23.9622,21.5659 C24.8542,21.5659 25.5772,22.2889 25.5772,23.1809 C25.5772,24.0729 24.8542,24.7959 23.9622,24.7959 M23.9622,19.1429 C21.7322,19.1429 19.9242,20.9509 19.9242,23.1809 C19.9242,25.4109 21.7322,27.2179 23.9622,27.2179 C26.1922,27.2179 28.0002,25.4109 28.0002,23.1809 C28.0002,20.9509 26.1922,19.1429 23.9622,19.1429" id="Fill-8" fill="#999999"></path>
                <path d="M0.3875,17.0772 C0.2845,17.0772 0.1965,17.1522 0.1825,17.2552 C0.0625,18.2052 -0.0005,19.1952 -0.0005,20.2202 C-0.0005,26.7072 2.5195,32.8022 6.1675,35.7062 C6.2045,35.7362 6.2515,35.7512 6.2985,35.7512 L15.4045,35.7512 C15.4515,35.7512 15.4985,35.7362 15.5355,35.7062 C19.1835,32.8022 21.7025,26.7072 21.7025,20.2202 C21.7025,19.2112 21.6415,18.2352 21.5255,17.2982 C21.5125,17.1962 21.4245,17.1202 21.3215,17.1202 L0.3875,17.0772 Z" id="Fill-5" fill="#999999"></path>
            </g>
        </g>
    </g>
</svg>