<?xml version="1.0" standalone="no"?>
<!-- Generator: Adobe Fireworks 10, Export SVG Extension by Aaron Beall (http://fireworks.abeall.com) . Version: 0.6.1  -->
<!DOCTYPE svg PUBLIC "-//W3C//DTD SVG 1.1//EN" "http://www.w3.org/Graphics/SVG/1.1/DTD/svg11.dtd">
<svg id="Untitled-Page%201" viewBox="0 0 810 646" style="background-color:#ffffff00" version="1.1"
	xmlns="http://www.w3.org/2000/svg" xmlns:xlink="http://www.w3.org/1999/xlink" xml:space="preserve"
	x="0px" y="0px" width="810px" height="646px"
>
	<g id="Layer%201">
		<path d="M 624.705 49.0268 C 630.9172 51.1897 637.1294 54.4342 639.6873 56.9576 L 754.0643 169.7913 C 756.6222 172.3147 759.9111 178.4431 762.1035 184.5714 L 624.705 184.5714 L 624.705 49.0268 ZM 765.0228 599.8571 L 301.9771 599.8571 L 301.975 539 L 257 539 L 257 611.3929 C 257 630.4989 272.1095 646 290.7328 646 L 776.2671 646 C 794.8904 646 810 630.4989 810 611.3929 L 810 196.1071 C 810 177.0011 799.107 150.3248 786.1058 136.9866 L 672.9408 24.5134 C 659.4202 11.1752 632.3789 0 613.4608 0 L 290.7328 0 C 272.1095 0 257 15.5011 257 34.6071 L 257 280 L 301.975 280 L 301.9771 46.1429 L 579.728 46.1429 L 579.728 196.1071 C 579.728 215.2132 594.8374 230.7143 613.4608 230.7143 L 765.0228 230.7143 L 765.0228 599.8571 Z" fill="#ffffff"/>
		<path d="M 449.5781 325 L 548.9063 325 L 548.9063 343 L 471.5156 343 L 471.5156 399 L 537.6563 399 L 537.6563 417 L 471.5156 417 L 471.5156 486.5 L 449.5781 486.5 L 449.5781 325 ZM 316.5781 325 L 415.9063 325 L 415.9063 343 L 338.5156 343 L 338.5156 399 L 404.6563 399 L 404.6563 417 L 338.5156 417 L 338.5156 486.5 L 316.5781 486.5 L 316.5781 325 ZM 267.4531 324 L 267.4531 486 L 245.625 486 L 245.625 324 L 267.4531 324 ZM 150.75 323.5 L 215.2188 485 L 198.3438 485 C 196.375 485 194.7969 484.5156 193.6094 483.5469 C 192.4063 482.5781 191.5 481.3438 190.9063 479.8438 L 175.8438 441 L 103.5 441 L 88.4219 479.8438 C 87.8906 481.1875 87 482.3906 85.7188 483.4375 C 84.4375 484.4844 82.875 485 81 485 L 64.125 485 L 128.5938 323.5 L 150.75 323.5 ZM 0 312.75 L 0 506.25 C 0 527.6843 11.3158 539 32.75 539 L 591.25 539 C 612.6843 539 624 527.6843 624 506.25 L 624 312.75 C 624 291.3158 612.6843 280 591.25 280 L 32.75 280 C 11.3158 280 0 291.3158 0 312.75 ZM 134.8906 359.7031 L 109.5781 425.3281 L 169.7656 425.3281 L 144.4531 359.5938 C 142.7969 355.5313 141.1719 350.4688 139.6094 344.375 C 138.7813 347.4688 137.9688 350.2969 137.1875 352.8906 C 136.4063 355.4844 135.6406 357.7656 134.8906 359.7031 Z" fill="#ffffff"/>
	</g>
</svg>