<?xml version="1.0" standalone="no"?>
<!DOCTYPE svg PUBLIC "-//W3C//DTD SVG 20010904//EN"
 "http://www.w3.org/TR/2001/REC-SVG-20010904/DTD/svg10.dtd">
<svg version="1.0" xmlns="http://www.w3.org/2000/svg"
 width="300.000000pt" height="300.000000pt" viewBox="0 0 300.000000 300.000000"
 preserveAspectRatio="xMidYMid meet">
<metadata>
Created by potrace 1.10, written by Peter Selinger 2001-2011
</metadata>
<g transform="translate(0.000000,300.000000) scale(0.100000,-0.100000)"
fill="#ffffff" stroke="none">
<path d="M1302 2799 c-317 -41 -545 -197 -680 -464 -203 -405 -203 -1265 0
-1670 162 -321 446 -475 878 -475 432 0 716 154 878 475 203 405 203 1265 0
1670 -138 272 -362 424 -691 465 -94 12 -293 11 -385 -1z m328 -179 c219 -23
336 -73 455 -194 62 -63 90 -100 122 -166 79 -161 121 -351 131 -602 18 -406
-25 -703 -131 -918 -57 -117 -170 -232 -277 -283 -238 -112 -622 -112 -858 -1
-128 61 -247 194 -307 343 -74 181 -106 393 -106 701 0 737 206 1067 699 1119
110 12 164 12 272 1z"/>
<path d="M1410 2033 l0 -308 -108 108 -107 107 -68 -67 -67 -68 152 -152 153
-153 -153 -153 -152 -152 67 -68 68 -67 107 107 108 108 0 -308 0 -307 300
225 c165 124 300 229 300 233 0 4 -84 91 -187 194 l-188 188 188 188 c103 103
187 190 187 194 0 4 -135 109 -300 233 l-300 225 0 -307z m293 -146 l28 -22
-71 -70 -70 -69 0 122 0 123 43 -30 c23 -17 55 -41 70 -54z m0 -774 c-15 -13
-47 -37 -70 -54 l-43 -30 0 123 0 122 70 -69 71 -70 -28 -22z"/>
</g>
</svg>
