<?xml version="1.0" standalone="no"?>
<!-- Generator: Adobe Fireworks 10, Export SVG Extension by Aaron Beall (http://fireworks.abeall.com) . Version: 0.6.1  -->
<!DOCTYPE svg PUBLIC "-//W3C//DTD SVG 1.1//EN" "http://www.w3.org/Graphics/SVG/1.1/DTD/svg11.dtd">
<svg id="Mp3.svg-Page%201" viewBox="0 0 1280 646" style="background-color:#ffffff00" version="1.1"
	xmlns="http://www.w3.org/2000/svg" xmlns:xlink="http://www.w3.org/1999/xlink" xml:space="preserve"
	x="0px" y="0px" width="1280px" height="646px"
>
	<g id="Background">
		<path d="M 512.5 23.5 C 522.5 27.5 533.5 33.5 544.5 39.5 C 559.5 48.5 580.5 64.5 596.5 82.5 C 605.5 91.5 613.5 102.5 620.5 114.5 C 624.5 119.5 643.5 155.5 643.5 161.5 L 643.5 167.5 C 643.5 167.5 643.5 168.5 641.5 168.5 C 637.5 168.5 626.5 138.5 619.5 126.5 C 590.5 71.5 533.5 43.5 491.5 32.5 C 470.5 26.5 444.5 24.5 424.5 24.5 C 422.5 24.5 417.5 23.5 401.5 25.5 C 198.5 44.5 54.5 188.5 54.5 358.5 C 54.5 444.5 93.5 520.5 213.5 558.5 C 238.5 566.5 262.5 566.5 285.5 566.5 C 320.5 566.5 314.5 568.5 360.5 556.5 C 398.5 547.5 452.5 519.5 480.5 470.5 C 492.5 449.5 557.5 299.5 557.5 292.5 C 557.5 283.5 547.5 284.5 546.5 284.5 C 513.5 284.5 500.5 343.5 493.5 356.5 C 478.5 384.5 466.5 417.5 453.5 447.5 L 349.5 447.5 C 358.5 421.5 413.5 305.5 413.5 292.5 C 413.5 283.5 405.5 284.5 402.5 284.5 C 395.5 284.5 385.5 286.5 379.5 298.5 C 351.5 345.5 333.5 398.5 309.5 446.5 C 308.5 447.5 305.5 448.5 302.5 448.5 L 207.5 448.5 C 207.5 448.5 206.5 447.5 206.5 446.5 L 297.5 241.5 L 390.5 242.5 C 393.5 242.5 394.5 243.5 395.5 243.5 C 397.5 245.5 397.5 249.5 400.5 249.5 C 402.5 249.5 419.5 241.5 429.5 239.5 C 438.5 237.5 458.5 237.5 460.5 237.5 C 481.5 237.5 496.5 234.5 517.5 259.5 C 541.5 245.5 575.5 236.5 603.5 236.5 C 625.5 236.5 664.5 242.5 664.5 280.5 C 664.5 300.5 652.5 323.5 642.5 345.5 C 598.5 437.5 550.5 582.5 424.5 622.5 C 397.5 630.5 355.5 641.5 324.5 641.5 L 270.5 641.5 C 264.5 640.5 258.5 639.5 252.5 639.5 C 203.5 636.5 148.5 618.5 101.5 579.5 C 63.5 549.5 34.5 508.5 22.5 475.5 C 19.5 465.5 14.5 454.5 11.5 443.5 C 8.5 431.5 4.5 409.5 4.5 407.5 L 4.5 338.5 C 27.5 117.5 243.5 3.5 403.5 3.5 C 440.5 3.5 476.5 8.5 512.5 23.5 Z" fill="#ffffff"/>
		<path d="M 1276.5 210.5 C 1276.5 251.5 1228.5 283.5 1188.5 295.5 C 1188.5 296.5 1190.5 298.5 1191.5 298.5 C 1217.5 313.5 1224.5 326.5 1224.5 345.5 C 1224.5 399.5 1153.5 440.5 1105.5 448.5 C 1090.5 451.5 1067.5 454.5 1051.5 454.5 C 1022.5 454.5 981.5 448.5 955.5 425.5 C 951.5 422.5 943.5 414.5 943.5 412.5 C 943.5 407.5 996.5 371.5 998.5 371.5 C 1002.5 371.5 1017.5 377.5 1017.5 382.5 C 1017.5 384.5 1015.5 399.5 1015.5 402.5 C 1015.5 418.5 1032.5 422.5 1042.5 422.5 C 1079.5 422.5 1122.5 381.5 1122.5 345.5 C 1122.5 330.5 1118.5 321.5 1101.5 319.5 C 1079.5 315.5 1076.5 318.5 1054.5 317.5 C 1057.5 306.5 1060.5 294.5 1069.5 285.5 L 1089.5 285.5 C 1094.5 284.5 1099.5 283.5 1103.5 283.5 C 1134.5 280.5 1174.5 240.5 1174.5 210.5 C 1174.5 193.5 1155.5 192.5 1148.5 192.5 C 1146.5 192.5 1139.5 192.5 1134.5 193.5 C 1116.5 196.5 1092.5 219.5 1095.5 236.5 C 1087.5 240.5 1078.5 242.5 1069.5 244.5 C 1060.5 231.5 1044.5 206.5 1044.5 204.5 C 1044.5 199.5 1072.5 183.5 1078.5 181.5 C 1115.5 163.5 1147.5 159.5 1185.5 159.5 C 1210.5 159.5 1276.5 160.5 1276.5 210.5 Z" fill="#ffffff"/>
		<path d="M 870.5 289.5 C 870.5 305.5 836.5 413.5 797.5 413.5 C 784.5 413.5 785.5 405.5 785.5 397.5 C 785.5 366.5 828.5 274.5 860.5 274.5 C 870.5 274.5 870.5 282.5 870.5 289.5 ZM 977.5 292.5 C 977.5 243.5 933.5 237.5 900.5 237.5 C 889.5 237.5 878.5 237.5 867.5 240.5 C 858.5 242.5 846.5 249.5 844.5 249.5 C 840.5 249.5 839.5 245.5 840.5 242.5 L 731.5 242.5 L 593.5 556.5 L 704.5 556.5 L 757.5 442.5 C 774.5 451.5 786.5 454.5 801.5 454.5 C 855.5 454.5 922.5 429.5 959.5 355.5 C 970.5 331.5 977.5 314.5 977.5 292.5 Z" fill="#ffffff"/>
	</g>
	<g id="Layer%201">
	</g>
</svg>