<?xml version="1.0" standalone="no"?>
<!-- Generator: Adobe Fireworks 10, Export SVG Extension by Aaron Beall (http://fireworks.abeall.com) . Version: 0.6.1  -->
<!DOCTYPE svg PUBLIC "-//W3C//DTD SVG 1.1//EN" "http://www.w3.org/Graphics/SVG/1.1/DTD/svg11.dtd">
<svg id="mp4.fw-Page%201" viewBox="0 0 810 646" style="background-color:#ffffff00" version="1.1"
	xmlns="http://www.w3.org/2000/svg" xmlns:xlink="http://www.w3.org/1999/xlink" xml:space="preserve"
	x="0px" y="0px" width="810px" height="646px"
>
	<g id="Layer%201">
		<path d="M 624.705 49.0268 C 630.9172 51.1897 637.1294 54.4342 639.6873 56.9576 L 754.0643 169.7913 C 756.6222 172.3147 759.9111 178.4431 762.1035 184.5714 L 624.705 184.5714 L 624.705 49.0268 ZM 765.0228 599.8571 L 301.9771 599.8571 L 301.975 539 L 257 539 L 257 611.3929 C 257 630.4989 272.1095 646 290.7328 646 L 776.2671 646 C 794.8904 646 810 630.4989 810 611.3929 L 810 196.1071 C 810 177.0011 799.107 150.3248 786.1058 136.9866 L 672.9408 24.5134 C 659.4202 11.1752 632.3789 0 613.4608 0 L 290.7328 0 C 272.1095 0 257 15.5011 257 34.6071 L 257 280 L 301.975 280 L 301.9771 46.1429 L 579.728 46.1429 L 579.728 196.1071 C 579.728 215.2132 594.8374 230.7143 613.4608 230.7143 L 765.0228 230.7143 L 765.0228 599.8571 Z" fill="#ffffff"/>
		<path d="M 527.9688 323 L 527.9688 424.7656 L 548.4531 424.7656 L 548.4531 440.5781 C 548.4531 442.0625 547.9531 443.3438 546.9844 444.4063 C 546.0156 445.4688 544.5938 446 542.7188 446 L 527.9688 446 L 527.9688 485.5 L 503.6719 485.5 L 503.6719 446 L 435.0469 446 C 433.1719 446 431.5156 445.4219 430.0938 444.2656 C 428.6719 443.1094 427.7813 441.6563 427.4063 439.9219 L 424.5938 425.875 L 501.6563 323 L 527.9688 323 ZM 351.4219 429 L 328.7031 429 L 328.7031 486 L 298.4375 486 L 298.4375 324 L 351.4219 324 C 362.2969 324 371.7031 325.2813 379.6563 327.8125 C 387.6094 330.3594 394.1719 333.9063 399.3438 338.4688 C 404.5156 343.0313 408.3438 348.4844 410.8125 354.8281 C 413.2813 361.1719 414.5313 368.125 414.5313 375.6563 C 414.5313 383.5 413.2188 390.7031 410.5938 397.2344 C 407.9688 403.7656 404.0313 409.3906 398.7813 414.0938 C 393.5313 418.8125 386.9688 422.4688 379.0938 425.0781 C 371.2188 427.7031 361.9844 429 351.4219 429 ZM 170.0938 419.125 C 171.375 421.5313 172.5469 424.0313 173.6406 426.6094 C 174.7344 429.2031 175.7969 431.7969 176.8438 434.4219 C 177.8906 431.7344 178.9844 429.0625 180.1094 426.4375 C 181.2344 423.8125 182.4375 421.3125 183.7188 418.9063 L 231.8594 328.8281 C 232.4531 327.7188 233.0781 326.8281 233.7188 326.1406 C 234.3438 325.4688 235.0625 324.9844 235.8438 324.6719 C 236.625 324.375 237.5156 324.1875 238.5 324.1094 C 239.4688 324.0469 240.6406 324 241.9844 324 L 264.8281 324 L 264.8281 486 L 238.1563 486 L 238.1563 380.9844 C 238.1563 379.0469 238.2031 376.9063 238.3281 374.5781 C 238.4375 372.2656 238.6094 369.8906 238.8438 367.4844 L 189.6719 459.7344 C 188.5469 461.8438 187.0781 463.4844 185.2813 464.6406 C 183.4844 465.7969 181.3906 466.375 178.9844 466.375 L 174.8281 466.375 C 172.4219 466.375 170.3125 465.7969 168.5156 464.6406 C 166.7188 463.4844 165.2656 461.8438 164.1406 459.7344 L 114.2969 367.1563 C 114.5938 369.625 114.7969 372.0469 114.9219 374.4063 C 115.0313 376.7813 115.0938 378.9688 115.0938 380.9844 L 115.0938 486 L 88.4219 486 L 88.4219 324 L 111.2656 324 C 112.6094 324 113.7656 324.0469 114.75 324.1094 C 115.7188 324.1875 116.6094 324.375 117.3906 324.6719 C 118.1719 324.9844 118.9063 325.4688 119.5781 326.1406 C 120.25 326.8281 120.8906 327.7188 121.5 328.8281 L 170.0938 419.125 ZM 0 312.75 L 0 506.25 C 0 527.6843 11.3158 539 32.75 539 L 591.25 539 C 612.6843 539 624 527.6843 624 506.25 L 624 312.75 C 624 291.3158 612.6843 280 591.25 280 L 32.75 280 C 11.3158 280 0 291.3158 0 312.75 ZM 503.6719 424.7656 L 503.6719 371.6406 C 503.6719 369.25 503.7344 366.6719 503.8906 363.8906 C 504.0469 361.125 504.3125 358.25 504.6875 355.25 L 454.1719 424.7656 L 503.6719 424.7656 ZM 328.7031 347 L 328.7031 405 L 351.4219 405 C 356.9688 405 361.8125 404.3125 365.9375 402.9375 C 370.0625 401.5625 373.4688 399.5781 376.1719 397.0156 C 378.8594 394.4531 380.8906 391.3125 382.25 387.625 C 383.5938 383.9375 384.2813 379.8281 384.2813 375.2813 C 384.2813 370.9688 383.5938 367.0469 382.25 363.5469 C 380.8906 360.0469 378.8594 357.0625 376.1719 354.5938 C 373.4688 352.1406 370.0625 350.2656 365.9375 348.9531 C 361.8125 347.6563 356.9688 347 351.4219 347 L 328.7031 347 Z" fill="#ffffff"/>
	</g>
</svg>