<?xml version="1.0" standalone="no"?>
<!-- Generator: Adobe Fireworks 10, Export SVG Extension by Aaron Beall (http://fireworks.abeall.com) . Version: 0.6.1  -->
<!DOCTYPE svg PUBLIC "-//W3C//DTD SVG 1.1//EN" "http://www.w3.org/Graphics/SVG/1.1/DTD/svg11.dtd">
<svg id="Untitled-Page%201" viewBox="0 0 509 339" style="background-color:#ffffff00" version="1.1"
	xmlns="http://www.w3.org/2000/svg" xmlns:xlink="http://www.w3.org/1999/xlink" xml:space="preserve"
	x="0px" y="0px" width="509px" height="339px"
>
	<g id="Layer%201">
		<path d="M 436.5 28.5 C 462.5 27.5 481.5 49.5 481.5 70.5 L 481.5 268.5 C 480.5 294.5 457.5 311.5 438.5 311.5 L 70.5 311.5 C 49.5 310.5 28.5 289.5 28.5 269.5 L 28.5 70.5 C 27.5 45.5 52.5 27.5 72.5 28.5 L 436.5 28.5 ZM 441.5 0.5 L 67.5 0.5 C 37.5 -2.5 -1.5 35.5 0.5 65.5 L 0.5 274.5 C 0.5 302.5 30.5 337.5 65.5 339.5 L 443.5 339.5 C 464.5 339.5 500.5 318.5 505.5 290.5 C 506.5 284.5 508.5 279.5 509.5 273.5 L 509.5 65.5 C 509.5 35.5 476.5 -0.5 441.5 0.5 Z" fill="#ffffff"/>
		<path d="M 141.5 255.5 C 151.5 256.5 155.5 263.5 155.5 268.5 C 155.5 273.5 150.5 282.5 144.5 282.5 L 80.5 282.5 C 72.5 279.5 71.5 272.5 71.5 268.5 C 71.5 261.5 76.5 255.5 84.5 255.5 L 141.5 255.5 Z" fill="#ffffff"/>
		<path d="M 424.5 183.5 C 424.5 201.5 401.5 197.5 396.5 197.5 C 386.5 197.5 369.5 200.5 369.5 183.5 C 369.5 167.5 389.5 170.5 396.5 170.5 C 406.5 170.5 424.5 168.5 424.5 183.5 ZM 424.5 152.5 C 422.5 140.5 403.5 142.5 395.5 142.5 C 392.5 142.5 377.5 141.5 370.5 143.5 C 349.5 148.5 340.5 168.5 340.5 184.5 C 340.5 215.5 364.5 226.5 395.5 226.5 C 404.5 226.5 420.5 227.5 424.5 215.5 L 425.5 242.5 C 424.5 247.5 416.5 255.5 411.5 255.5 L 354.5 255.5 L 354.5 282.5 L 423.5 283.5 C 436.5 283.5 452.5 271.5 453.5 253.5 L 452.5 142.5 L 425.5 142.5 C 425.5 145.5 425.5 149.5 424.5 152.5 Z" fill="#ffffff"/>
		<path d="M 282.5 184.5 C 282.5 201.5 259.5 197.5 254.5 197.5 C 247.5 197.5 227.5 201.5 227.5 184.5 C 227.5 167.5 247.5 170.5 254.5 170.5 C 264.5 170.5 282.5 168.5 282.5 184.5 ZM 282.5 151.5 C 279.5 141.5 263.5 142.5 253.5 142.5 C 231.5 142.5 214.5 139.5 199.5 174.5 L 199.5 193.5 C 199.5 203.5 219.5 222.5 231.5 224.5 C 238.5 226.5 251.5 226.5 254.5 226.5 C 261.5 226.5 278.5 227.5 282.5 216.5 L 283.5 244.5 C 281.5 247.5 279.5 250.5 276.5 252.5 C 274.5 254.5 273.5 255.5 270.5 255.5 L 212.5 255.5 L 212.5 282.5 L 282.5 283.5 C 295.5 283.5 312.5 267.5 311.5 255.5 L 311.5 142.5 L 283.5 142.5 C 283.5 145.5 283.5 148.5 282.5 151.5 Z" fill="#ffffff"/>
		<path d="M 141.5 99.5 L 141.5 183.5 C 139.5 199.5 122.5 197.5 113.5 197.5 C 107.5 197.5 85.5 201.5 85.5 185.5 L 85.5 97.5 C 86.5 83.5 104.5 85.5 112.5 85.5 C 121.5 85.5 141.5 83.5 141.5 99.5 ZM 139.5 58.5 C 130.5 55.5 115.5 57.5 112.5 57.5 C 90.5 57.5 69.5 54.5 57.5 92.5 L 57.5 190.5 C 57.5 196.5 65.5 210.5 68.5 213.5 C 85.5 229.5 96.5 226.5 113.5 226.5 C 137.5 226.5 157.5 226.5 169.5 187.5 L 169.5 95.5 C 169.5 79.5 154.5 62.5 139.5 58.5 Z" fill="#ffffff"/>
	</g>
</svg>