<svg xmlns="http://www.w3.org/2000/svg" xmlns:xlink="http://www.w3.org/1999/xlink" width="1410" height="770" viewBox="0 0 1410 770">
  <defs>
    <clipPath id="clip-Roon_Ready_Stacked_White_Logo">
      <rect width="1410" height="770"/>
    </clipPath>
  </defs>
  <g id="Roon_Ready_Stacked_White_Logo" data-name="Roon Ready Stacked White Logo" clip-path="url(#clip-Roon_Ready_Stacked_White_Logo)">
    <g id="Group_19" data-name="Group 19" transform="translate(-295 -264)">
      <g id="Group_1" data-name="Group 1" transform="translate(298.179 265.101)">
        <path id="Path_1" data-name="Path 1" d="M-1199.04-517.145c-105.731,0-191.748,90.855-191.748,202.52,0,110.089,86.016,199.649,191.748,199.649,106.129,0,192.466-89.56,192.466-199.649C-1006.574-426.29-1092.911-517.145-1199.04-517.145Zm150.815,202.52c0,88.306-67.656,160.149-150.815,160.149s-150.815-71.843-150.815-160.149c0-89.89,67.655-163.019,150.815-163.019S-1048.225-404.514-1048.225-314.625Z" transform="translate(1594.749 517.145)" fill="#fff"/>
        <path id="Path_2" data-name="Path 2" d="M-1143.334-517.145c-105.724,0-191.74,90.855-191.74,202.52,0,110.089,86.016,199.649,191.74,199.649,106.13,0,192.475-89.56,192.475-199.649C-950.859-426.29-1037.2-517.145-1143.334-517.145Zm150.815,202.52c0,88.306-67.656,160.149-150.815,160.149s-150.808-71.843-150.808-160.149c0-89.89,67.656-163.019,150.808-163.019S-992.519-404.514-992.519-314.625Z" transform="translate(1965.622 517.145)" fill="#fff"/>
        <path id="Path_3" data-name="Path 3" d="M-1116.435-517.145c-94.461,0-163.02,68.558-163.02,163.027v218.676a20.489,20.489,0,0,0,20.466,20.466,20.488,20.488,0,0,0,20.466-20.466V-354.118c0-70.327,51.347-121.374,122.088-121.374,70.327,0,121.374,51.047,121.374,121.374v218.676A20.488,20.488,0,0,0-974.6-114.975a20.489,20.489,0,0,0,20.467-20.466V-354.118C-954.128-448.587-1022.388-517.145-1116.435-517.145Z" transform="translate(2335.863 517.145)" fill="#fff"/>
        <path id="Path_4" data-name="Path 4" d="M-1227.991-477.93c7.948-1.371,13.491-9.824,13.491-18.461,0-7.519-3.691-14.326-10.535-17.212,0,0-5.054-3.438-33.239-3.438-98.167,0-159.153,62.157-159.153,162.223v218.676a20.489,20.489,0,0,0,20.466,20.466,20.49,20.49,0,0,0,20.468-20.466V-354.817c0-79.308,48.773-125.961,122.974-122.99C-1248.572-477.608-1234.238-476.406-1227.991-477.93Z" transform="translate(1417.426 517.844)" fill="#fff"/>
      </g>
      <g id="Group_2" data-name="Group 2" transform="translate(295.43 789.235)">
        <path id="Path_5" data-name="Path 5" d="M-1218.939-203.607h-39.625l-41.721-78.565q-6.961-12.519-16.508-17.549-9.567-5.042-25.206-5.046h-40.328v101.161h-35.458V-448.691h104.293q40.667,0,62.057,18.078,21.373,18.077,21.377,52.839,0,28.162-15.819,46.239t-45.021,22.947q18.078,5.559,29.9,27.113Zm-98.727-130.019q27.116,0,40.152-10.6,13.048-10.589,13.04-32.847,0-22.235-12.863-32.51-12.863-10.245-40.328-10.245h-65.006v86.207Z" transform="translate(1417.785 448.691)" fill="#fff"/>
        <path id="Path_6" data-name="Path 6" d="M-1377.377-203.607V-448.691h159.222v28.858h-124.109v77.173h117.156v29.2h-117.156v81h124.109v28.851Z" transform="translate(1686.771 448.691)" fill="#fff"/>
        <path id="Path_7" data-name="Path 7" d="M-1133.189-203.607l-26.071-60.488h-124.108l-26.071,60.488h-36.155l109.162-245.084h29.893l109.161,245.084ZM-1271.2-292.6h99.775l-49.715-116.115Z" transform="translate(1898.342 448.691)" fill="#fff"/>
        <path id="Path_8" data-name="Path 8" d="M-1299.919-448.691h85.87q59.435,0,92.118,31.983t32.679,90.388q0,58.413-32.679,90.564t-92.118,32.151h-85.87Zm83.779,215.185q90.388,0,90.388-92.815,0-92.466-90.388-92.47h-47.969v185.285Z" transform="translate(2202.388 448.691)" fill="#fff"/>
        <path id="Path_9" data-name="Path 9" d="M-1032.69-448.691l-97.692,130.716v114.368h-35.8V-317.975l-97.685-130.716h41.018l74.745,101.169,74.745-101.169Z" transform="translate(2442.363 448.691)" fill="#fff"/>
      </g>
    </g>
  </g>
</svg>
