<?xml version="1.0" standalone="no"?>
<!-- Generator: Adobe Fireworks 10, Export SVG Extension by Aaron Beall (http://fireworks.abeall.com) . Version: 0.6.1  -->
<!DOCTYPE svg PUBLIC "-//W3C//DTD SVG 1.1//EN" "http://www.w3.org/Graphics/SVG/1.1/DTD/svg11.dtd">
<svg id="Untitled-Page%201" viewBox="0 0 810 646" style="background-color:#ffffff00" version="1.1"
	xmlns="http://www.w3.org/2000/svg" xmlns:xlink="http://www.w3.org/1999/xlink" xml:space="preserve"
	x="0px" y="0px" width="810px" height="646px"
>
	<g id="Layer%201">
		<path d="M 624.705 49.0268 C 630.9172 51.1897 637.1294 54.4342 639.6873 56.9576 L 754.0643 169.7913 C 756.6222 172.3147 759.9111 178.4431 762.1035 184.5714 L 624.705 184.5714 L 624.705 49.0268 ZM 765.0228 599.8571 L 301.9771 599.8571 L 301.975 539 L 257 539 L 257 611.3929 C 257 630.4989 272.1095 646 290.7328 646 L 776.2671 646 C 794.8904 646 810 630.4989 810 611.3929 L 810 196.1071 C 810 177.0011 799.107 150.3248 786.1058 136.9866 L 672.9408 24.5134 C 659.4202 11.1752 632.3789 0 613.4608 0 L 290.7328 0 C 272.1095 0 257 15.5011 257 34.6071 L 257 280 L 301.975 280 L 301.9771 46.1429 L 579.728 46.1429 L 579.728 196.1071 C 579.728 215.2132 594.8374 230.7143 613.4608 230.7143 L 765.0228 230.7143 L 765.0228 599.8571 Z" fill="#ffffff"/>
		<path d="M 86.3594 485 L 35.8438 322.5 L 61.2813 322.5 C 63.9063 322.5 66.0938 323.125 67.8594 324.3594 C 69.6094 325.5938 70.7969 327.2656 71.4063 329.3594 L 99.0781 426.5781 C 99.75 428.9844 100.375 431.5781 100.9375 434.3906 C 101.5 437.2031 102.0313 440.1875 102.5625 443.3281 C 103.1563 440.1875 103.8125 437.2031 104.5313 434.3906 C 105.2344 431.5781 106 428.9844 106.8438 426.5781 L 138.7813 329.3594 C 139.375 327.6406 140.5625 326.0625 142.3281 324.6406 C 144.0781 323.2188 146.2344 322.5 148.7969 322.5 L 157.6875 322.5 C 160.3125 322.5 162.4844 323.125 164.2031 324.3594 C 165.9219 325.5938 167.125 327.2656 167.8125 329.3594 L 199.5313 426.5781 C 201.1875 431.3906 202.6094 436.7031 203.8125 442.5469 C 204.3281 439.625 204.875 436.8125 205.4375 434.1094 C 206 431.4219 206.5781 428.9063 207.1875 426.5781 L 234.8594 329.3594 C 235.3906 327.4844 236.5469 325.875 238.3438 324.5313 C 240.1406 323.1875 242.3125 322.5 244.875 322.5 L 268.6094 322.5 L 218.0938 485 L 190.7656 485 L 155.2188 374.0469 C 154.75 372.6406 154.2813 371.1094 153.7969 369.4531 C 153.3125 367.8125 152.8438 366.0469 152.4063 364.1719 C 151.9375 366.0469 151.4688 367.8125 150.9844 369.4531 C 150.5 371.1094 150.0313 372.6406 149.5938 374.0469 L 113.7031 485 L 86.3594 485 ZM 365.0156 322.5 L 428.9063 485 L 405.5156 485 C 402.8906 485 400.7344 484.3438 399.0469 483.0313 C 397.3594 481.7188 396.1406 480.0938 395.3906 478.1406 L 383.2344 445 L 315.8438 445 L 303.7031 478.1406 C 303.0938 479.875 301.9063 481.4531 300.1563 482.875 C 298.3906 484.2969 296.2344 485 293.6875 485 L 270.1719 485 L 334.0781 322.5 L 365.0156 322.5 ZM 495.6563 485 L 429.9531 322.5 L 454.3594 322.5 C 456.9844 322.5 459.1094 323.1406 460.7656 324.4219 C 462.4219 325.7031 463.6563 327.3438 464.4844 329.3594 L 502.7344 428.5 C 504.0156 431.7188 505.2344 435.2656 506.3906 439.125 C 507.5469 442.9844 508.6563 447.0469 509.7188 451.3125 C 511.4375 442.7031 513.5625 435.0938 516.125 428.5 L 554.2656 329.3594 C 554.9375 327.6406 556.1406 326.0625 557.8594 324.6406 C 559.5781 323.2188 561.7188 322.5 564.2813 322.5 L 588.6875 322.5 L 522.9844 485 L 495.6563 485 ZM 0 312.75 L 0 506.25 C 0 527.6843 11.3158 539 32.75 539 L 591.25 539 C 612.6843 539 624 527.6843 624 506.25 L 624 312.75 C 624 291.3158 612.6843 280 591.25 280 L 32.75 280 C 11.3158 280 0 291.3158 0 312.75 ZM 343.4063 369.9844 L 323.6094 423.7656 L 375.4688 423.7656 L 355.6719 369.7656 C 354.7656 367.375 353.7813 364.5469 352.6875 361.2813 C 351.5938 358.0313 350.5313 354.4844 349.4844 350.6719 C 348.4219 354.4844 347.3906 358.0469 346.3906 361.3438 C 345.375 364.6406 344.375 367.5156 343.4063 369.9844 Z" fill="#ffffff"/>
	</g>
</svg>