<?xml version="1.0" standalone="no"?>
<!-- Generator: Adobe Fireworks 10, Export SVG Extension by Aaron Beall (http://fireworks.abeall.com) . Version: 0.6.1  -->
<!DOCTYPE svg PUBLIC "-//W3C//DTD SVG 1.1//EN" "http://www.w3.org/Graphics/SVG/1.1/DTD/svg11.dtd">
<svg id="Untitled-Page%201" viewBox="0 0 1282 788" style="background-color:#ffffff00" version="1.1"
	xmlns="http://www.w3.org/2000/svg" xmlns:xlink="http://www.w3.org/1999/xlink" xml:space="preserve"
	x="0px" y="0px" width="1282px" height="788px"
>
	<g id="Layer%201">
		<path d="M 773.5 79.5 L 807.5 248.5 L 903.5 79.5 L 966.5 79.5 L 797.5 358.5 L 777.5 358.5 L 709.5 79.5 L 773.5 79.5 Z" fill="#ffffff"/>
		<path d="M 970.5 459.5 L 932.5 502.5 C 922.5 485.5 889.5 479.5 874.5 479.5 C 805.5 479.5 778.5 551.5 778.5 598.5 C 778.5 640.5 804.5 660.5 842.5 660.5 C 866.5 660.5 888.5 651.5 913.5 633.5 C 915.5 637.5 929.5 678.5 929.5 683.5 C 929.5 685.5 914.5 692.5 913.5 693.5 C 884.5 705.5 854.5 712.5 826.5 712.5 C 824.5 712.5 807.5 710.5 799.5 709.5 C 761.5 706.5 721.5 662.5 719.5 635.5 C 719.5 632.5 717.5 626.5 717.5 624.5 L 717.5 582.5 C 730.5 477.5 806.5 428.5 883.5 428.5 C 913.5 428.5 938.5 434.5 970.5 459.5 Z" fill="#ffffff"/>
		<path d="M 1065.5 329.5 L 1027.5 541.5 C 1027.5 541.5 1027.5 542.5 1028.5 543.5 L 1138.5 436.5 L 1208.5 436.5 L 1099.5 543.5 L 1175.5 709.5 L 1111.5 709.5 L 1053.5 584.5 C 1040.5 595.5 1020.5 603.5 1013.5 620.5 C 1001.5 647.5 1003.5 679.5 998.5 710.5 L 939.5 710.5 L 939.5 703.5 L 1005.5 329.5 L 1065.5 329.5 Z" fill="#ffffff"/>
		<path d="M 451.5 439.5 C 451.5 503.5 394.5 525.5 349.5 525.5 C 332.5 525.5 334.5 525.5 313.5 520.5 L 313.5 517.5 C 330.5 478.5 346.5 439.5 362.5 400.5 C 372.5 399.5 391.5 397.5 393.5 397.5 C 419.5 397.5 451.5 403.5 451.5 439.5 ZM 142.5 76.5 L 79.5 76.5 L 79.5 85.5 L 129.5 451.5 L 154.5 451.5 L 270.5 220.5 L 299.5 391.5 L 170.5 703.5 C 171.5 704.5 173.5 705.5 174.5 705.5 L 233.5 708.5 C 252.5 663.5 271.5 618.5 290.5 574.5 C 300.5 577.5 316.5 580.5 327.5 581.5 C 342.5 582.5 344.5 582.5 347.5 582.5 C 403.5 582.5 486.5 552.5 510.5 475.5 C 515.5 459.5 519.5 442.5 519.5 428.5 C 519.5 358.5 449.5 343.5 394.5 340.5 C 392.5 340.5 390.5 340.5 388.5 339.5 L 515.5 76.5 L 450.5 76.5 L 341.5 307.5 L 310.5 76.5 L 283.5 76.5 L 169.5 307.5 C 168.5 306.5 168.5 305.5 167.5 305.5 L 142.5 76.5 Z" fill="#ffffff"/>
		<path d="M 640.5 226.5 L 640.5 230.5 C 637.5 247.5 636.5 264.5 630.5 281.5 C 629.5 286.5 621.5 288.5 618.5 292.5 C 610.5 299.5 598.5 305.5 590.5 307.5 C 583.5 309.5 571.5 311.5 569.5 311.5 C 555.5 311.5 535.5 307.5 535.5 287.5 C 535.5 240.5 590.5 223.5 618.5 223.5 C 620.5 223.5 632.5 225.5 640.5 226.5 ZM 710.5 158.5 C 710.5 94.5 667.5 77.5 613.5 77.5 C 583.5 77.5 547.5 85.5 518.5 107.5 L 535.5 159.5 C 559.5 136.5 582.5 131.5 607.5 131.5 C 632.5 131.5 650.5 137.5 650.5 169.5 C 650.5 172.5 650.5 176.5 649.5 179.5 C 638.5 177.5 622.5 175.5 620.5 175.5 C 567.5 175.5 488.5 203.5 475.5 280.5 L 475.5 303.5 C 475.5 326.5 507.5 359.5 530.5 359.5 C 535.5 359.5 544.5 361.5 546.5 361.5 C 572.5 361.5 608.5 352.5 632.5 332.5 C 637.5 352.5 662.5 358.5 676.5 360.5 L 698.5 360.5 C 700.5 349.5 703.5 332.5 703.5 330.5 C 703.5 327.5 694.5 321.5 691.5 316.5 C 689.5 311.5 689.5 302.5 689.5 300.5 C 689.5 282.5 710.5 186.5 710.5 158.5 Z" fill="#ffffff"/>
		<path d="M 642.5 578.5 C 642.5 581.5 637.5 613.5 632.5 630.5 C 630.5 635.5 622.5 640.5 618.5 644.5 C 604.5 655.5 584.5 662.5 570.5 662.5 C 552.5 662.5 537.5 657.5 537.5 637.5 C 537.5 593.5 589.5 574.5 619.5 574.5 C 621.5 574.5 642.5 576.5 642.5 578.5 ZM 712.5 509.5 C 712.5 439.5 659.5 428.5 615.5 428.5 C 584.5 428.5 547.5 436.5 520.5 458.5 L 537.5 510.5 C 561.5 486.5 584.5 482.5 609.5 482.5 C 631.5 482.5 652.5 488.5 652.5 520.5 C 652.5 522.5 651.5 527.5 650.5 530.5 C 641.5 528.5 624.5 526.5 621.5 526.5 C 571.5 526.5 492.5 552.5 477.5 628.5 L 477.5 656.5 C 477.5 673.5 503.5 705.5 527.5 709.5 C 534.5 710.5 545.5 712.5 548.5 712.5 C 573.5 712.5 609.5 703.5 633.5 683.5 C 641.5 703.5 662.5 708.5 677.5 711.5 L 699.5 711.5 C 701.5 701.5 705.5 682.5 705.5 679.5 C 705.5 675.5 690.5 675.5 690.5 651.5 L 712.5 509.5 Z" fill="#ffffff"/>
		<path d="M 1230.5 50.5 L 1230.5 736.5 L 50.5 736.5 L 50.5 50.5 L 1230.5 50.5 ZM 1229.5 -0.5 L 50.5 -0.5 C 42.5 1.5 33.5 1.5 27.5 4.5 C 8.5 10.5 0.5 34.5 -0.5 47.5 L -0.5 739.5 C -0.5 741.5 2.5 753.5 4.5 759.5 C 7.5 768.5 19.5 778.5 27.5 781.5 C 33.5 784.5 41.5 785.5 48.5 787.5 L 1231.5 787.5 C 1234.5 787.5 1246.5 784.5 1253.5 781.5 C 1270.5 775.5 1279.5 751.5 1281.5 738.5 L 1281.5 47.5 C 1281.5 44.5 1278.5 32.5 1275.5 27.5 C 1271.5 17.5 1260.5 7.5 1253.5 4.5 C 1245.5 1.5 1237.5 1.5 1229.5 -0.5 Z" fill="#ffffff"/>
	</g>
</svg>