<?xml version="1.0" standalone="no"?>
<!-- Generator: Adobe Fireworks 10, Export SVG Extension by Aaron Beall (http://fireworks.abeall.com) . Version: 0.6.1  -->
<!DOCTYPE svg PUBLIC "-//W3C//DTD SVG 1.1//EN" "http://www.w3.org/Graphics/SVG/1.1/DTD/svg11.dtd">
<svg id="Untitled-Page%201" viewBox="0 0 810 646" style="background-color:#ffffff00" version="1.1"
	xmlns="http://www.w3.org/2000/svg" xmlns:xlink="http://www.w3.org/1999/xlink" xml:space="preserve"
	x="0px" y="0px" width="810px" height="646px"
>
	<g id="Layer%201">
		<path d="M 624.705 49.0268 C 630.9172 51.1897 637.1294 54.4342 639.6873 56.9576 L 754.0643 169.7913 C 756.6222 172.3147 759.9111 178.4431 762.1035 184.5714 L 624.705 184.5714 L 624.705 49.0268 ZM 765.0228 599.8571 L 301.9771 599.8571 L 301.975 539 L 257 539 L 257 611.3929 C 257 630.4989 272.1095 646 290.7328 646 L 776.2671 646 C 794.8904 646 810 630.4989 810 611.3929 L 810 196.1071 C 810 177.0011 799.107 150.3248 786.1058 136.9866 L 672.9408 24.5134 C 659.4202 11.1752 632.3789 0 613.4608 0 L 290.7328 0 C 272.1095 0 257 15.5011 257 34.6071 L 257 280 L 301.975 280 L 301.9771 46.1429 L 579.728 46.1429 L 579.728 196.1071 C 579.728 215.2132 594.8374 230.7143 613.4608 230.7143 L 765.0228 230.7143 L 765.0228 599.8571 Z" fill="#ffffff"/>
		<path d="M 545.25 323.5 L 609.7188 485 L 592.8438 485 C 590.875 485 589.2969 484.5156 588.1094 483.5469 C 586.9063 482.5781 586 481.3438 585.4063 479.8438 L 570.3438 441 L 498 441 L 482.9219 479.8438 C 482.3906 481.1875 481.5 482.3906 480.2188 483.4375 C 478.9375 484.4844 477.375 485 475.5 485 L 458.625 485 L 523.0938 323.5 L 545.25 323.5 ZM 343.3906 427.5 C 344.4375 429.3125 345.3594 431.2188 346.1406 433.2188 C 346.9219 435.2188 347.7031 437.2344 348.4531 439.2656 C 349.2031 437.1563 349.9844 435.1406 350.8125 433.2188 C 351.625 431.2969 352.5625 429.3594 353.625 427.3906 L 408.1875 327.7344 C 409.1563 326 410.1719 324.9375 411.2188 324.5625 C 412.2656 324.1875 413.7656 324 415.7188 324 L 431.8125 324 L 431.8125 486 L 412.6875 486 L 412.6875 367.4375 C 412.6875 365.875 412.7188 364.1875 412.7969 362.3906 C 412.8594 360.5938 412.9844 358.75 413.1406 356.875 L 357.9063 457.6719 C 356.0313 461.0469 353.4063 462.7344 350.0313 462.7344 L 346.875 462.7344 C 343.5 462.7344 340.875 461.0469 339 457.6719 L 282.5313 356.5313 C 282.75 358.4844 282.9063 360.3906 283.0313 362.2656 C 283.1406 364.1406 283.2031 365.875 283.2031 367.4375 L 283.2031 486 L 264.0781 486 L 264.0781 324 L 280.1563 324 C 282.1094 324 283.6094 324.1875 284.6563 324.5625 C 285.7031 324.9375 286.7188 326 287.7031 327.7344 L 343.3906 427.5 ZM 61.3594 485 L 11.0781 323.5 L 29.1875 323.5 C 31.125 323.5 32.7344 324 34.0156 324.9688 C 35.2969 325.9531 36.1563 327.2031 36.6094 328.7031 L 69.9063 441.3594 C 70.5 443.3906 71.0469 445.5781 71.5469 447.9219 C 72.0313 450.2656 72.5 452.7031 72.9531 455.2656 C 73.4688 452.7031 73.9844 450.2344 74.5156 447.8594 C 75.0469 445.4844 75.6406 443.3281 76.3281 441.3594 L 114.2344 328.7031 C 114.6719 327.4219 115.5625 326.2344 116.875 325.1406 C 118.1875 324.0469 119.7813 323.5 121.6563 323.5 L 127.9688 323.5 C 129.9063 323.5 131.5 324 132.7344 324.9688 C 133.9688 325.9531 134.8594 327.2031 135.3906 328.7031 L 173.0781 441.375 C 174.4219 445.3125 175.6094 449.7969 176.6719 454.8438 C 177.1094 452.3594 177.5313 449.9844 177.9063 447.7188 C 178.2813 445.4688 178.7656 443.3438 179.375 441.375 L 212.7813 328.7031 C 213.1563 327.3594 214 326.1563 215.3125 325.0938 C 216.625 324.0313 218.2188 323.5 220.0938 323.5 L 237.0938 323.5 L 186.7969 485 L 167.2188 485 L 126.3906 363.7188 C 125.5625 361.4375 124.8125 358.7656 124.1406 355.7344 L 123.0625 360.0156 C 122.7188 361.3906 122.375 362.625 122 363.7188 L 80.9375 485 L 61.3594 485 ZM 0 312.75 L 0 506.25 C 0 527.6843 11.3158 539 32.75 539 L 591.25 539 C 612.6843 539 624 527.6843 624 506.25 L 624 312.75 C 624 291.3158 612.6843 280 591.25 280 L 32.75 280 C 11.3158 280 0 291.3158 0 312.75 ZM 529.3906 359.7031 L 504.0781 425.3281 L 564.2656 425.3281 L 538.9531 359.5938 C 537.2969 355.5313 535.6719 350.4688 534.1094 344.375 C 533.2813 347.4688 532.4688 350.2969 531.6875 352.8906 C 530.9063 355.4844 530.1406 357.7656 529.3906 359.7031 Z" fill="#ffffff"/>
	</g>
</svg>