<?xml version="1.0" standalone="no"?>
<!-- Generator: Adobe Fireworks 10, Export SVG Extension by Aaron Beall (http://fireworks.abeall.com) . Version: 0.6.1  -->
<!DOCTYPE svg PUBLIC "-//W3C//DTD SVG 1.1//EN" "http://www.w3.org/Graphics/SVG/1.1/DTD/svg11.dtd">
<svg id="Untitled-Page%201" viewBox="0 0 1071 420" style="background-color:#ffffff00" version="1.1"
	xmlns="http://www.w3.org/2000/svg" xmlns:xlink="http://www.w3.org/1999/xlink" xml:space="preserve"
	x="0px" y="0px" width="1071px" height="420px"
>
	<g id="Layer%201">
		<path d="M 236.5 364.5 C 209.5 357.5 186.5 324.5 186.5 303.5 L 186.5 283.5 C 186.5 261.5 211.5 227.5 236.5 223.5 L 236.5 364.5 ZM 426.5 -0.5 L 236.5 -0.5 L 236.5 180.5 C 213.5 168.5 189.5 166.5 168.5 166.5 C 110.5 166.5 14.5 189.5 -0.5 275.5 L -0.5 308.5 C -0.5 310.5 5.5 332.5 10.5 343.5 C 39.5 400.5 105.5 419.5 148.5 419.5 C 173.5 419.5 213.5 413.5 237.5 401.5 L 237.5 415.5 L 426.5 415.5 L 426.5 212.5 L 485.5 212.5 L 485.5 352.5 C 485.5 361.5 493.5 377.5 500.5 383.5 C 532.5 410.5 571.5 415.5 605.5 415.5 C 682.5 415.5 700.5 400.5 740.5 400.5 C 761.5 400.5 779.5 406.5 802.5 411.5 C 815.5 414.5 830.5 416.5 843.5 418.5 L 905.5 418.5 C 935.5 418.5 1070.5 401.5 1070.5 330.5 C 1070.5 287.5 980.5 247.5 980.5 222.5 C 980.5 203.5 1009.5 201.5 1019.5 201.5 C 1047.5 199.5 1050.5 202.5 1051.5 201.5 C 1052.5 195.5 1053.5 190.5 1054.5 182.5 C 1012.5 170.5 972.5 164.5 930.5 164.5 C 908.5 164.5 754.5 166.5 754.5 239.5 C 754.5 280.5 806.5 302.5 840.5 336.5 C 847.5 343.5 847.5 346.5 847.5 352.5 C 847.5 375.5 822.5 378.5 808.5 378.5 C 788.5 378.5 764.5 369.5 743.5 369.5 C 730.5 369.5 711.5 375.5 698.5 375.5 C 691.5 375.5 679.5 369.5 674.5 361.5 L 674.5 212.5 L 723.5 212.5 L 723.5 169.5 L 674.5 169.5 L 674.5 30.5 L 487.5 115.5 L 487.5 169.5 L 426.5 169.5 L 426.5 -0.5 Z" fill="#ffffff"/>
	</g>
</svg>