<?xml version="1.0" standalone="no"?>
<!-- Generator: Adobe Fireworks 10, Export SVG Extension by Aaron Beall (http://fireworks.abeall.com) . Version: 0.6.1  -->
<!DOCTYPE svg PUBLIC "-//W3C//DTD SVG 1.1//EN" "http://www.w3.org/Graphics/SVG/1.1/DTD/svg11.dtd">
<svg id="m4a.fw-Page%201" viewBox="0 0 810 646" style="background-color:#ffffff00" version="1.1"
	xmlns="http://www.w3.org/2000/svg" xmlns:xlink="http://www.w3.org/1999/xlink" xml:space="preserve"
	x="0px" y="0px" width="810px" height="646px"
>
	<path d="M 624.705 49.0268 C 630.9172 51.1897 637.1294 54.4342 639.6873 56.9576 L 754.0643 169.7913 C 756.6222 172.3147 759.9111 178.4431 762.1035 184.5714 L 624.705 184.5714 L 624.705 49.0268 ZM 765.0228 599.8571 L 301.9771 599.8571 L 301.975 539 L 257 539 L 257 611.3929 C 257 630.4989 272.1095 646 290.7328 646 L 776.2671 646 C 794.8904 646 810 630.4989 810 611.3929 L 810 196.1071 C 810 177.0011 799.107 150.3248 786.1058 136.9866 L 672.9408 24.5134 C 659.4202 11.1752 632.3789 0 613.4608 0 L 290.7328 0 C 272.1095 0 257 15.5011 257 34.6071 L 257 280 L 301.975 280 L 301.9771 46.1429 L 579.728 46.1429 L 579.728 196.1071 C 579.728 215.2132 594.8374 230.7143 613.4608 230.7143 L 765.0228 230.7143 L 765.0228 599.8571 Z" fill="#ffffff"/>
	<path d="M 497.0156 322.5 L 560.9063 485 L 537.5156 485 C 534.8906 485 532.7344 484.3438 531.0469 483.0313 C 529.3594 481.7188 528.1406 480.0938 527.3906 478.1406 L 515.2344 445 L 447.8438 445 L 435.7031 478.1406 C 435.0938 479.875 433.9063 481.4531 432.1563 482.875 C 430.3906 484.2969 428.2344 485 425.6875 485 L 402.1719 485 L 466.0781 322.5 L 497.0156 322.5 ZM 377.4688 323 L 377.4688 424.7656 L 397.9531 424.7656 L 397.9531 440.5781 C 397.9531 442.0625 397.4531 443.3438 396.4844 444.4063 C 395.5156 445.4688 394.0938 446 392.2188 446 L 377.4688 446 L 377.4688 485.5 L 353.1719 485.5 L 353.1719 446 L 284.5469 446 C 282.6719 446 281.0156 445.4219 279.5938 444.2656 C 278.1719 443.1094 277.2813 441.6563 276.9063 439.9219 L 274.0938 425.875 L 351.1563 323 L 377.4688 323 ZM 160.5938 419.125 C 161.875 421.5313 163.0469 424.0313 164.1406 426.6094 C 165.2344 429.2031 166.2969 431.7969 167.3438 434.4219 C 168.3906 431.7344 169.4844 429.0625 170.6094 426.4375 C 171.7344 423.8125 172.9375 421.3125 174.2188 418.9063 L 222.3594 328.8281 C 222.9531 327.7188 223.5781 326.8281 224.2188 326.1406 C 224.8438 325.4688 225.5625 324.9844 226.3438 324.6719 C 227.125 324.375 228.0156 324.1875 229 324.1094 C 229.9688 324.0469 231.1406 324 232.4844 324 L 255.3281 324 L 255.3281 486 L 228.6563 486 L 228.6563 380.9844 C 228.6563 379.0469 228.7031 376.9063 228.8281 374.5781 C 228.9375 372.2656 229.1094 369.8906 229.3438 367.4844 L 180.1719 459.7344 C 179.0469 461.8438 177.5781 463.4844 175.7813 464.6406 C 173.9844 465.7969 171.8906 466.375 169.4844 466.375 L 165.3281 466.375 C 162.9219 466.375 160.8125 465.7969 159.0156 464.6406 C 157.2188 463.4844 155.7656 461.8438 154.6406 459.7344 L 104.7969 367.1563 C 105.0938 369.625 105.2969 372.0469 105.4219 374.4063 C 105.5313 376.7813 105.5938 378.9688 105.5938 380.9844 L 105.5938 486 L 78.9219 486 L 78.9219 324 L 101.7656 324 C 103.1094 324 104.2656 324.0469 105.25 324.1094 C 106.2188 324.1875 107.1094 324.375 107.8906 324.6719 C 108.6719 324.9844 109.4063 325.4688 110.0781 326.1406 C 110.75 326.8281 111.3906 327.7188 112 328.8281 L 160.5938 419.125 ZM 0 312.75 L 0 506.25 C 0 527.6843 11.3158 539 32.75 539 L 591.25 539 C 612.6843 539 624 527.6843 624 506.25 L 624 312.75 C 624 291.3158 612.6843 280 591.25 280 L 32.75 280 C 11.3158 280 0 291.3158 0 312.75 ZM 475.4063 369.9844 L 455.6094 423.7656 L 507.4688 423.7656 L 487.6719 369.7656 C 486.7656 367.375 485.7813 364.5469 484.6875 361.2813 C 483.5938 358.0313 482.5313 354.4844 481.4844 350.6719 C 480.4219 354.4844 479.3906 358.0469 478.3906 361.3438 C 477.375 364.6406 476.375 367.5156 475.4063 369.9844 ZM 353.1719 424.7656 L 353.1719 371.6406 C 353.1719 369.25 353.2344 366.6719 353.3906 363.8906 C 353.5469 361.125 353.8125 358.25 354.1875 355.25 L 303.6719 424.7656 L 353.1719 424.7656 Z" fill="#ffffff"/>
</svg>