<?xml version="1.0" standalone="no"?>
<!-- Generator: Adobe Fireworks 10, Export SVG Extension by Aaron Beall (http://fireworks.abeall.com) . Version: 0.6.1  -->
<!DOCTYPE svg PUBLIC "-//W3C//DTD SVG 1.1//EN" "http://www.w3.org/Graphics/SVG/1.1/DTD/svg11.dtd">
<svg id="Untitled-Page%201" viewBox="0 0 999 999" style="background-color:#ffffff00" version="1.1"
	xmlns="http://www.w3.org/2000/svg" xmlns:xlink="http://www.w3.org/1999/xlink" xml:space="preserve"
	x="0px" y="0px" width="999px" height="999px"
>
	<path d="M 449.5 490.5 C 467.5 491.5 484.5 492.5 501.5 494.5 C 527.5 497.5 559.5 504.5 586.5 511.5 C 628.5 522.5 676.5 542.5 719.5 569.5 C 728.5 575.5 732.5 586.5 732.5 594.5 C 732.5 613.5 715.5 625.5 701.5 625.5 C 698.5 625.5 692.5 624.5 689.5 622.5 C 664.5 609.5 640.5 595.5 617.5 586.5 C 547.5 559.5 487.5 551.5 421.5 551.5 L 381.5 552.5 C 357.5 554.5 331.5 556.5 307.5 560.5 C 285.5 563.5 241.5 573.5 239.5 573.5 C 221.5 573.5 208.5 559.5 208.5 542.5 C 208.5 534.5 211.5 522.5 221.5 517.5 C 235.5 509.5 254.5 507.5 271.5 504.5 C 310.5 496.5 352.5 491.5 393.5 490.5 L 449.5 490.5 ZM 446.5 327.5 C 467.5 328.5 488.5 330.5 509.5 332.5 C 541.5 336.5 579.5 343.5 612.5 352.5 C 666.5 367.5 724.5 385.5 779.5 423.5 C 792.5 432.5 794.5 443.5 794.5 454.5 C 794.5 476.5 775.5 493.5 755.5 493.5 C 741.5 493.5 730.5 482.5 714.5 474.5 C 702.5 468.5 688.5 462.5 677.5 456.5 C 629.5 431.5 505.5 404.5 443.5 404.5 L 383.5 404.5 C 351.5 406.5 321.5 408.5 290.5 415.5 C 287.5 415.5 235.5 430.5 226.5 430.5 C 204.5 430.5 187.5 412.5 187.5 391.5 C 187.5 379.5 196.5 361.5 211.5 356.5 C 267.5 337.5 324.5 330.5 382.5 327.5 L 446.5 327.5 ZM 466.5 155.5 C 490.5 157.5 514.5 158.5 537.5 160.5 C 582.5 165.5 629.5 173.5 675.5 185.5 C 730.5 199.5 791.5 220.5 847.5 256.5 C 849.5 257.5 852.5 261.5 854.5 264.5 C 861.5 272.5 864.5 283.5 864.5 293.5 C 864.5 319.5 842.5 339.5 818.5 339.5 C 815.5 339.5 804.5 337.5 799.5 334.5 C 703.5 280.5 605.5 259.5 509.5 250.5 C 500.5 249.5 482.5 248.5 479.5 248.5 L 371.5 248.5 C 359.5 249.5 345.5 250.5 333.5 251.5 C 313.5 254.5 291.5 256.5 271.5 260.5 C 262.5 261.5 215.5 276.5 199.5 276.5 C 170.5 276.5 154.5 253.5 154.5 230.5 C 154.5 214.5 159.5 199.5 180.5 188.5 C 187.5 184.5 197.5 182.5 205.5 180.5 C 218.5 176.5 234.5 173.5 249.5 170.5 C 293.5 161.5 338.5 157.5 384.5 155.5 L 466.5 155.5 ZM 998.5 389.5 C 998.5 115.5 777.5 -109.5 498.5 -109.5 C 315.5 -109.5 103.5 -8.5 20.5 244.5 C 7.5 284.5 1.5 326.5 -0.5 366.5 L -0.5 413.5 C -0.5 415.5 3.5 463.5 8.5 487.5 C 11.5 502.5 15.5 517.5 19.5 532.5 C 98.5 783.5 314.5 889.5 498.5 889.5 C 772.5 889.5 998.5 668.5 998.5 389.5 Z" fill="#ffffff"/>
</svg>