<?xml version="1.0" standalone="no"?>
<!-- Generator: Adobe Fireworks 10, Export SVG Extension by Aaron Beall (http://fireworks.abeall.com) . Version: 0.6.1  -->
<!DOCTYPE svg PUBLIC "-//W3C//DTD SVG 1.1//EN" "http://www.w3.org/Graphics/SVG/1.1/DTD/svg11.dtd">
<svg id="Untitled-Page%201" viewBox="0 0 1546 754" style="background-color:#ffffff00" version="1.1"
	xmlns="http://www.w3.org/2000/svg" xmlns:xlink="http://www.w3.org/1999/xlink" xml:space="preserve"
	x="0px" y="0px" width="1546px" height="754px"
>
	<path d="M 887.5 555.5 C 887.5 597.5 847.5 619.5 815.5 619.5 C 780.5 619.5 743.5 595.5 743.5 555.5 C 743.5 515.5 780.5 491.5 815.5 491.5 C 849.5 491.5 887.5 515.5 887.5 555.5 ZM 854.5 191.5 L 801.5 191.5 C 776.5 193.5 750.5 197.5 727.5 202.5 C 717.5 204.5 707.5 207.5 697.5 210.5 C 697.5 211.5 697.5 213.5 696.5 214.5 C 695.5 221.5 694.5 229.5 693.5 236.5 C 692.5 245.5 691.5 254.5 689.5 263.5 C 688.5 275.5 686.5 287.5 684.5 298.5 C 682.5 311.5 678.5 336.5 678.5 338.5 C 678.5 336.5 727.5 325.5 751.5 321.5 C 757.5 320.5 765.5 319.5 772.5 318.5 C 781.5 318.5 795.5 317.5 798.5 317.5 C 834.5 317.5 887.5 326.5 899.5 383.5 L 898.5 430.5 C 856.5 394.5 817.5 384.5 777.5 384.5 C 696.5 384.5 612.5 436.5 595.5 544.5 L 595.5 589.5 C 595.5 599.5 606.5 632.5 608.5 638.5 C 644.5 719.5 717.5 749.5 777.5 749.5 C 815.5 749.5 859.5 737.5 898.5 703.5 C 899.5 733.5 899.5 735.5 898.5 736.5 L 1028.5 729.5 L 1036.5 341.5 C 1036.5 266.5 952.5 194.5 854.5 191.5 Z" fill="#ffffff"/>
	<path d="M 1388.5 190.5 C 1438.5 195.5 1486.5 210.5 1536.5 247.5 L 1453.5 368.5 C 1422.5 344.5 1394.5 336.5 1364.5 336.5 C 1287.5 336.5 1229.5 397.5 1229.5 471.5 C 1229.5 547.5 1290.5 606.5 1364.5 606.5 C 1396.5 606.5 1423.5 598.5 1457.5 570.5 L 1545.5 688.5 C 1486.5 735.5 1422.5 753.5 1364.5 753.5 C 1260.5 753.5 1139.5 692.5 1093.5 549.5 C 1092.5 545.5 1083.5 501.5 1083.5 493.5 L 1083.5 449.5 C 1085.5 437.5 1086.5 425.5 1088.5 413.5 C 1097.5 350.5 1155.5 258.5 1233.5 221.5 C 1240.5 217.5 1250.5 213.5 1259.5 209.5 C 1270.5 205.5 1284.5 200.5 1296.5 197.5 C 1309.5 194.5 1325.5 192.5 1339.5 190.5 L 1388.5 190.5 Z" fill="#ffffff"/>
	<path d="M 554.5 13.5 L 554.5 725.5 L 404.5 741.5 L 404.5 29.5 L 544.5 13.5 L 554.5 13.5 Z" fill="#ffffff"/>
	<path d="M 318.5 -0.5 L 356.5 134.5 L 283.5 135.5 C 246.5 141.5 226.5 165.5 226.5 195.5 L 226.5 212.5 L 310.5 212.5 L 310.5 341.5 L 227.5 341.5 L 227.5 723.5 L 82.5 738.5 L 82.5 341.5 L -0.5 341.5 L 29.5 212.5 L 83.5 212.5 L 83.5 162.5 C 85.5 152.5 85.5 140.5 88.5 131.5 C 90.5 124.5 93.5 117.5 95.5 110.5 C 111.5 55.5 187.5 4.5 234.5 1.5 C 240.5 1.5 247.5 0.5 254.5 -0.5 L 318.5 -0.5 Z" fill="#ffffff"/>
</svg>