<?xml version="1.0" encoding="UTF-8"?>
<svg width="32px" height="32px" viewBox="0 0 32 32" version="1.1" xmlns="http://www.w3.org/2000/svg" xmlns:xlink="http://www.w3.org/1999/xlink">
    <!-- Generator: Sketch 61.1 (89650) - https://sketch.com -->
    <title>Group 6</title>
    <desc>Created with Sketch.</desc>
    <defs>
        <polygon id="path-1" points="0 0.0002 32 0.0002 32 32 0 32"></polygon>
    </defs>
    <g id="User-activation" stroke="none" stroke-width="1" fill="none" fill-rule="evenodd">
        <g id="Group-6">
            <g id="Group-3">
                <mask id="mask-2" fill="white">
                    <use xlink:href="#path-1"></use>
                </mask>
                <g id="Clip-2"></g>
                <path d="M16,0.0002 L16,0.0002 C7.164,0.0002 0,7.1632 0,16.0002 C0,24.8362 7.164,32.0002 16,32.0002 C24.836,32.0002 32,24.8362 32,16.0002 C32,7.1632 24.836,0.0002 16,0.0002 M16,2.2862 C23.562,2.2862 29.714,8.4382 29.714,16.0002 C29.714,23.5622 23.562,29.7142 16,29.7142 C8.438,29.7142 2.286,23.5622 2.286,16.0002 C2.286,8.4382 8.438,2.2862 16,2.2862" id="Fill-1" fill="#FFFFFF" mask="url(#mask-2)"></path>
            </g>
            <path d="M16.1021,22.1857 L22.1191,25.3487 C22.2801,25.4337 22.4681,25.2967 22.4371,25.1177 L21.2891,18.4177 C21.2761,18.3467 21.3001,18.2737 21.3521,18.2237 L26.2191,13.4787 C26.3501,13.3517 26.2771,13.1297 26.0971,13.1037 L19.3711,12.1267 C19.2991,12.1157 19.2371,12.0707 19.2051,12.0057 L16.1971,5.9107 C16.1161,5.7477 15.8831,5.7477 15.8031,5.9107 L12.7941,12.0057 C12.7631,12.0707 12.7011,12.1157 12.6291,12.1267 L5.9031,13.1037 C5.7221,13.1297 5.6501,13.3517 5.7811,13.4787 L10.6481,18.2237 C10.7001,18.2737 10.7241,18.3467 10.7111,18.4177 L9.5621,25.1177 C9.5321,25.2967 9.7201,25.4337 9.8811,25.3487 L15.8971,22.1857 C15.9621,22.1517 16.0381,22.1517 16.1021,22.1857" id="Fill-4" fill="#FFFFFF"></path>
        </g>
    </g>
</svg>