<?xml version="1.0" encoding="UTF-8"?>
<svg width="40px" height="40px" viewBox="0 0 40 40" version="1.1" xmlns="http://www.w3.org/2000/svg" xmlns:xlink="http://www.w3.org/1999/xlink">
    <!-- Generator: Sketch 61.2 (89653) - https://sketch.com -->
    <title>Group 16 Copy</title>
    <desc>Created with Sketch.</desc>
    <defs>
        <polygon id="path-1" points="0.0002 0.0002 40 0.0002 40 40 0.0002 40"></polygon>
        <polygon id="path-3" points="0 40 40 40 40 0 0 0"></polygon>
    </defs>
    <g id="User-activation" stroke="none" stroke-width="1" fill="none" fill-rule="evenodd">
        <g id="Group-16-Copy">
            <g id="Group-3">
                <mask id="mask-2" fill="white">
                    <use xlink:href="#path-1"></use>
                </mask>
                <g id="Clip-2"></g>
                <path d="M20.0002,40.0002 L20.0002,40.0002 C8.9542,40.0002 0.0002,31.0452 0.0002,20.0002 C0.0002,8.9542 8.9542,0.0002 20.0002,0.0002 C31.0452,0.0002 40.0002,8.9542 40.0002,20.0002 C40.0002,31.0452 31.0452,40.0002 20.0002,40.0002" id="Fill-1" fill="#54C688" mask="url(#mask-2)"></path>
            </g>
            <path d="M20.0002,36.2502 C11.0402,36.2502 3.7502,28.9602 3.7502,20.0002 C3.7502,11.0402 11.0402,3.7502 20.0002,3.7502 C28.9602,3.7502 36.2502,11.0402 36.2502,20.0002 C36.2502,28.9602 28.9602,36.2502 20.0002,36.2502" id="Fill-4" fill="#54C688"></path>
            <path d="M20.0002,2.5002 L20.0002,2.5002 C10.3352,2.5002 2.5002,10.3352 2.5002,20.0002 C2.5002,29.6652 10.3352,37.5002 20.0002,37.5002 C29.6652,37.5002 37.5002,29.6652 37.5002,20.0002 C37.5002,10.3352 29.6652,2.5002 20.0002,2.5002 M20.0002,5.0002 C28.2712,5.0002 35.0002,11.7292 35.0002,20.0002 C35.0002,28.2712 28.2712,35.0002 20.0002,35.0002 C11.7292,35.0002 5.0002,28.2712 5.0002,20.0002 C5.0002,11.7292 11.7292,5.0002 20.0002,5.0002" id="Fill-6" fill="#000000"></path>
            <path d="M16.34,25.9255 C16.34,27.3075 15.22,28.4275 13.838,28.4275 C12.456,28.4275 11.336,27.3075 11.336,25.9255 C11.336,24.5435 12.456,23.4235 13.838,23.4235 C15.22,23.4235 16.34,24.5435 16.34,25.9255" id="Fill-8" fill="#000000"></path>
            <path d="M26.3351,23.4235 C26.3351,24.8055 25.2151,25.9255 23.8331,25.9255 C22.4511,25.9255 21.3311,24.8055 21.3311,23.4235 C21.3311,22.0415 22.4511,20.9215 23.8331,20.9215 C25.2151,20.9215 26.3351,22.0415 26.3351,23.4235" id="Fill-10" fill="#000000"></path>
            <mask id="mask-4" fill="white">
                <use xlink:href="#path-3"></use>
            </mask>
            <g id="Clip-13"></g>
            <polygon id="Fill-12" fill="#000000" mask="url(#mask-4)" points="25.084 23.424 26.335 23.424 26.335 10.912 25.084 10.912"></polygon>
            <polygon id="Fill-14" fill="#000000" mask="url(#mask-4)" points="15.089 25.925 16.34 25.925 16.34 13.413 15.089 13.413"></polygon>
            <polygon id="Fill-15" fill="#000000" mask="url(#mask-4)" points="15.0822 12.9255 15.0822 16.7175 26.3352 13.9035 26.3352 10.1105"></polygon>
        </g>
    </g>
</svg>