<?xml version="1.0" standalone="no"?>
<!-- Generator: Adobe Fireworks 10, Export SVG Extension by Aaron Beall (http://fireworks.abeall.com) . Version: 0.6.1  -->
<!DOCTYPE svg PUBLIC "-//W3C//DTD SVG 1.1//EN" "http://www.w3.org/Graphics/SVG/1.1/DTD/svg11.dtd">
<svg id="Untitled-Page%201" viewBox="0 0 726 905" style="background-color:#ffffff00" version="1.1"
	xmlns="http://www.w3.org/2000/svg" xmlns:xlink="http://www.w3.org/1999/xlink" xml:space="preserve"
	x="0px" y="0px" width="726px" height="905px"
>
	<g id="Layer%201">
		<path d="M 435.5621 722.5132 L 402.5304 814.0967 L 467.3987 814.0967 L 435.5621 722.5132 ZM 452.1295 691.7169 L 527.1566 899.2358 L 496.9067 899.2358 L 475.3527 837.0854 L 394.2055 837.0854 L 371.786 899.2358 L 343.1022 899.2358 L 420.9523 691.7169 L 452.1295 691.7169 Z" fill="#ffffff"/>
		<path d="M 231.1695 722.5132 L 198.0759 814.0967 L 262.9648 814.0967 L 231.1695 722.5132 ZM 167.3933 899.2358 L 138.6477 899.2358 L 216.4773 691.7169 L 247.6956 691.7169 L 322.7433 899.2358 L 292.514 899.2358 L 270.8982 837.0854 L 189.7923 837.0854 L 167.3933 899.2358 Z" fill="#ffffff"/>
		<path d="M 723.8632 753.8672 L 696.4157 753.8672 C 693.366 740.6688 687.2872 730.1968 678.2617 722.5132 C 669.1743 714.7676 656.3985 710.9258 640.0578 710.9258 C 620.0286 710.9258 603.894 718.0517 591.5921 732.3655 C 579.3314 746.6793 573.1495 768.6767 573.1495 798.2131 C 573.1495 822.3999 578.7132 842.0426 589.7994 857.1 C 600.8855 872.1573 617.4528 879.6551 639.4396 879.6551 C 659.7161 879.6551 675.1089 871.7236 685.7005 855.7988 C 691.3466 847.4335 695.509 836.4658 698.2703 822.8336 L 725.7177 822.8336 C 723.2656 844.6451 715.291 862.9866 701.7527 877.7961 C 685.4944 895.6419 663.6107 904.5028 636.0396 904.5028 C 612.2395 904.5028 592.2721 897.253 576.1168 882.6293 C 554.8513 863.3584 544.2185 833.5535 544.2185 793.2766 C 544.2185 762.6661 552.2137 737.5706 568.2041 717.9897 C 585.4308 696.674 609.2928 686.0781 639.6663 686.0781 C 665.5889 686.0781 685.7005 692.9561 700.0012 706.7742 C 714.3019 720.5923 722.2764 736.2693 723.8632 753.8672 L 723.8632 753.8672 Z" fill="#ffffff"/>
		<path d="M 358.2271 622.5645 L 240.8338 622.5645 C 41.3454 468.81 0.0094 326.5602 -0.1349 235.2866 L -0.1349 234.419 C -0.073 199.595 6.9124 164.1513 20.121 131.9918 C 60.9624 57.3246 131.2295 20.5797 211.9645 6.6996 C 297.2122 -7.924 394.288 2.9198 480.8751 21.6331 C 564.5774 39.6647 646.9197 65.7104 725.7383 99.0886 L 725.7383 140.6668 C 653.7197 112.6589 590.2321 92.8302 534.2245 79.6318 C 408.362 49.8475 320.5591 53.173 259.6472 69.8001 C 195.3559 87.3774 161.1085 119.7022 143.7787 143.5172 C 137.1641 152.564 131.6622 162.6022 127.5822 173.0742 C 57.3564 368.8819 260.0181 549.1985 358.2271 622.5645 L 358.2271 622.5645 Z" fill="#ffffff"/>
		<path d="M 533.2972 622.5645 L 442.2385 622.5645 C 300.9832 521.5211 247.8811 428.9048 231.5404 358.5958 C 218.0845 301.1548 229.3149 258.7091 236.8156 239.0664 C 238.4228 234.8734 240.2156 230.8251 242.3174 226.8594 C 254.3308 205.9154 269.3733 188.9991 286.5795 175.3669 C 389.4661 94.3174 570.8829 133.417 665.0119 161.8793 C 685.4532 168.0551 705.6473 174.9951 725.5529 182.6167 L 725.5529 222.6871 C 676.8398 205.7295 625.9014 194.328 574.6744 188.9371 C 501.0692 181.1296 417.779 186.8303 367.3763 236.7117 C 360.1641 243.879 353.6526 251.893 347.924 260.9398 C 299.1286 337.8377 326.3906 416.3467 377.7 483.0205 C 422.8275 541.6389 486.3976 591.1485 533.2972 622.5645 L 533.2972 622.5645 Z" fill="#ffffff"/>
		<path d="M 725.2437 259.0396 L 725.2437 622.6058 L 616.3195 622.6058 C 546.9385 580.3667 479.9478 517.7206 444.8967 454.269 C 417.5729 404.904 409.5983 355.0639 434.7173 313.8575 C 475.3527 247.3076 553.4913 235.5344 618.5244 239.3762 C 654.647 241.545 690.749 248.1752 725.2437 259.0396 L 725.2437 259.0396 Z" fill="#ffffff"/>
	</g>
</svg>