<?xml version="1.0" standalone="no"?>
<!DOCTYPE svg PUBLIC "-//W3C//DTD SVG 20010904//EN"
 "http://www.w3.org/TR/2001/REC-SVG-20010904/DTD/svg10.dtd">
<svg version="1.0" xmlns="http://www.w3.org/2000/svg"
 width="900.000000pt" height="630.000000pt" viewBox="0 0 900.000000 630.000000"
 preserveAspectRatio="xMidYMid meet">
<metadata>
Created by potrace 1.10, written by Peter Selinger 2001-2011
</metadata>
<g transform="translate(0.000000,630.000000) scale(0.100000,-0.100000)"
fill="#ffffff" stroke="none">
<path d="M433 5993 c-10 -4 -13 -487 -13 -2368 0 -2347 0 -2364 20 -2375 13
-7 251 -10 754 -8 l734 3 26 24 c15 14 72 86 128 160 56 75 107 141 114 146
31 27 116 165 111 179 -6 14 -76 16 -670 16 -502 0 -666 3 -675 12 -9 9 -12
433 -12 1845 0 1801 0 1832 19 1843 14 7 1129 10 3530 10 3177 0 3511 -1 3525
-16 14 -14 16 -195 16 -1839 0 -1651 -2 -1825 -16 -1839 -14 -15 -87 -16 -680
-16 -366 0 -669 -2 -675 -5 -21 -14 -6 -39 125 -205 20 -25 76 -97 125 -160
48 -63 98 -124 111 -135 22 -20 38 -20 757 -23 650 -2 738 -1 759 13 l24 15 0
2353 c0 1817 -3 2356 -12 2365 -9 9 -925 12 -4062 11 -2228 0 -4057 -3 -4063
-6z"/>
<path d="M4458 3810 c-9 -5 -32 -31 -51 -57 -19 -27 -59 -79 -89 -118 -29 -38
-118 -155 -197 -260 -80 -104 -155 -203 -169 -220 -13 -16 -65 -84 -114 -150
-113 -150 -223 -295 -265 -349 -18 -23 -47 -61 -65 -86 -17 -25 -57 -76 -87
-115 -31 -38 -69 -89 -86 -112 -40 -55 -215 -285 -304 -398 -39 -49 -86 -112
-104 -140 -19 -27 -59 -81 -90 -120 -67 -84 -74 -92 -179 -232 -158 -210 -355
-469 -432 -568 -42 -55 -102 -134 -133 -175 -31 -41 -75 -99 -97 -128 -23 -30
-52 -69 -66 -87 -14 -19 -53 -70 -87 -115 -62 -81 -72 -103 -53 -115 17 -10
5403 -6 5413 4 15 15 2 36 -83 146 -41 52 -106 135 -143 183 -37 48 -101 130
-142 182 -70 90 -196 253 -365 473 -96 125 -154 200 -210 272 -25 32 -54 70
-65 85 -11 16 -47 62 -80 104 -106 132 -188 239 -249 321 -33 44 -67 89 -77
100 -10 11 -46 56 -79 100 -33 44 -93 122 -132 174 -40 52 -79 103 -87 115 -8
12 -27 35 -41 51 -15 17 -61 75 -103 130 -66 88 -203 265 -324 420 -22 28 -76
97 -120 155 -44 58 -114 150 -157 205 -42 55 -102 133 -132 173 -93 121 -136
163 -156 152z"/>
</g>
</svg>
