<?xml version="1.0" standalone="no"?>
<!-- Generator: Adobe Fireworks 10, Export SVG Extension by Aaron Beall (http://fireworks.abeall.com) . Version: 0.6.1  -->
<!DOCTYPE svg PUBLIC "-//W3C//DTD SVG 1.1//EN" "http://www.w3.org/Graphics/SVG/1.1/DTD/svg11.dtd">
<svg id="alac.fw-Page%201" viewBox="0 0 810 646" style="background-color:#ffffff00" version="1.1"
	xmlns="http://www.w3.org/2000/svg" xmlns:xlink="http://www.w3.org/1999/xlink" xml:space="preserve"
	x="0px" y="0px" width="810px" height="646px"
>
	<path d="M 624.705 49.0268 C 630.9172 51.1897 637.1294 54.4342 639.6873 56.9576 L 754.0643 169.7913 C 756.6222 172.3147 759.9111 178.4431 762.1035 184.5714 L 624.705 184.5714 L 624.705 49.0268 ZM 765.0228 599.8571 L 301.9771 599.8571 L 301.975 539 L 257 539 L 257 611.3929 C 257 630.4989 272.1095 646 290.7328 646 L 776.2671 646 C 794.8904 646 810 630.4989 810 611.3929 L 810 196.1071 C 810 177.0011 799.107 150.3248 786.1058 136.9866 L 672.9408 24.5134 C 659.4202 11.1752 632.3789 0 613.4608 0 L 290.7328 0 C 272.1095 0 257 15.5011 257 34.6071 L 257 280 L 301.975 280 L 301.9771 46.1429 L 579.728 46.1429 L 579.728 196.1071 C 579.728 215.2132 594.8374 230.7143 613.4608 230.7143 L 765.0228 230.7143 L 765.0228 599.8571 Z" fill="#ffffff"/>
	<path d="M 580.0469 448.2188 C 580.8594 447.8125 581.7656 447.5938 582.75 447.5938 C 584.3906 447.5938 585.8125 448.25 587.0313 449.5469 L 598.9531 462.7188 C 592.3438 470.8906 584.2188 477.1406 574.5938 481.4844 C 564.9531 485.8281 553.3906 488 539.8906 488 C 527.8125 488 516.9531 485.9531 507.3125 481.8281 C 497.6719 477.7031 489.4375 471.9844 482.625 464.6406 C 475.7969 457.2969 470.5625 448.5469 466.9219 438.3594 C 463.2813 428.1719 461.4688 417.0625 461.4688 405 C 461.4688 392.7969 463.4844 381.625 467.5469 371.4688 C 471.5938 361.3281 477.2969 352.5938 484.6406 345.25 C 491.9844 337.9219 500.7813 332.2188 511.0313 328.125 C 521.2656 324.0469 532.5781 322 544.9531 322 C 557.0156 322 567.5781 323.9688 576.6094 327.875 C 585.6406 331.7813 593.3906 336.9688 599.8438 343.4063 L 589.7188 357.375 C 589.125 358.2656 588.3594 359.0469 587.4219 359.7188 C 586.4844 360.3906 585.1875 360.7188 583.5313 360.7188 C 581.8125 360.7188 580.0469 360.0625 578.25 358.7188 C 576.4375 357.375 574.1563 355.9219 571.375 354.3594 C 568.5938 352.7969 565.0938 351.3594 560.8594 350.0156 C 556.625 348.6719 551.25 348 544.7188 348 C 537.0625 348 530.0313 349.3281 523.625 351.9688 C 517.2188 354.6094 511.7031 358.3906 507.0938 363.2969 C 502.4688 368.2188 498.875 374.1875 496.2813 381.2188 C 493.6875 388.25 492.4063 396.1563 492.4063 404.9375 C 492.4063 414.0313 493.6875 422.1094 496.2813 429.1719 C 498.875 436.25 502.375 442.2031 506.8125 447.0469 C 511.2344 451.8906 516.4531 455.5938 522.4531 458.1563 C 528.4531 460.7188 534.8906 462 541.7969 462 C 545.9219 462 549.6406 461.7813 552.9844 461.3281 C 556.3281 460.8906 559.4063 460.1719 562.2188 459.2031 C 565.0313 458.2344 567.6875 457 570.2031 455.4688 C 572.7031 453.9375 575.2031 452.0625 577.6875 449.8281 C 578.4375 449.1719 579.2188 448.625 580.0469 448.2188 ZM 390.0156 322.5 L 453.9063 485 L 430.5156 485 C 427.8906 485 425.7344 484.3438 424.0469 483.0313 C 422.3594 481.7188 421.1406 480.0938 420.3906 478.1406 L 408.2344 445 L 340.8438 445 L 328.7031 478.1406 C 328.0938 479.875 326.9063 481.4531 325.1563 482.875 C 323.3906 484.2969 321.2344 485 318.6875 485 L 295.1719 485 L 359.0781 322.5 L 390.0156 322.5 ZM 225.1875 322.5 L 225.1875 460 L 290.3281 460 L 290.3281 485 L 194.9219 485 L 194.9219 322.5 L 225.1875 322.5 ZM 114.0156 322.5 L 177.9063 485 L 154.5156 485 C 151.8906 485 149.7344 484.3438 148.0469 483.0313 C 146.3594 481.7188 145.1406 480.0938 144.3906 478.1406 L 132.2344 445 L 64.8438 445 L 52.7031 478.1406 C 52.0938 479.875 50.9063 481.4531 49.1563 482.875 C 47.3906 484.2969 45.2344 485 42.6875 485 L 19.1719 485 L 83.0781 322.5 L 114.0156 322.5 ZM 0 312.75 L 0 506.25 C 0 527.6843 11.3158 539 32.75 539 L 591.25 539 C 612.6843 539 624 527.6843 624 506.25 L 624 312.75 C 624 291.3158 612.6843 280 591.25 280 L 32.75 280 C 11.3158 280 0 291.3158 0 312.75 ZM 368.4063 369.9844 L 348.6094 423.7656 L 400.4688 423.7656 L 380.6719 369.7656 C 379.7656 367.375 378.7813 364.5469 377.6875 361.2813 C 376.5938 358.0313 375.5313 354.4844 374.4844 350.6719 C 373.4219 354.4844 372.3906 358.0469 371.3906 361.3438 C 370.375 364.6406 369.375 367.5156 368.4063 369.9844 ZM 92.4063 369.9844 L 72.6094 423.7656 L 124.4688 423.7656 L 104.6719 369.7656 C 103.7656 367.375 102.7813 364.5469 101.6875 361.2813 C 100.5938 358.0313 99.5313 354.4844 98.4844 350.6719 C 97.4219 354.4844 96.3906 358.0469 95.3906 361.3438 C 94.375 364.6406 93.375 367.5156 92.4063 369.9844 Z" fill="#ffffff"/>
</svg>