<?xml version="1.0" standalone="no"?>
<!-- Generator: Adobe Fireworks 10, Export SVG Extension by Aaron Beall (http://fireworks.abeall.com) . Version: 0.6.1  -->
<!DOCTYPE svg PUBLIC "-//W3C//DTD SVG 1.1//EN" "http://www.w3.org/Graphics/SVG/1.1/DTD/svg11.dtd">
<svg id="Untitled-Page%201" viewBox="0 0 1586 700" style="background-color:#ffffff00" version="1.1"
	xmlns="http://www.w3.org/2000/svg" xmlns:xlink="http://www.w3.org/1999/xlink" xml:space="preserve"
	x="0px" y="0px" width="1586px" height="700px"
>
	<g id="Layer%201">
		<path d="M 569.5 144.5 C 570.5 145.5 570.5 146.5 570.5 147.5 C 571.5 173.5 575.5 199.5 591.5 225.5 C 677.5 361.5 959.5 373.5 959.5 532.5 C 959.5 614.5 918.5 673.5 840.5 690.5 C 834.5 691.5 798.5 699.5 785.5 699.5 L 718.5 699.5 C 665.5 694.5 607.5 686.5 555.5 664.5 L 555.5 523.5 C 556.5 521.5 556.5 519.5 559.5 519.5 C 561.5 519.5 563.5 519.5 564.5 522.5 C 610.5 602.5 671.5 656.5 739.5 656.5 C 789.5 656.5 840.5 635.5 850.5 564.5 L 850.5 533.5 C 846.5 505.5 821.5 471.5 789.5 448.5 C 712.5 394.5 599.5 356.5 562.5 255.5 C 558.5 243.5 554.5 221.5 554.5 219.5 L 554.5 175.5 C 557.5 166.5 554.5 152.5 561.5 144.5 L 569.5 144.5 Z" fill="#ffffff"/>
		<path d="M 1443.5 249.5 C 1445.5 263.5 1448.5 291.5 1448.5 294.5 L 1448.5 380.5 C 1441.5 458.5 1430.5 640.5 1287.5 640.5 C 1236.5 640.5 1231.5 609.5 1231.5 572.5 L 1231.5 131.5 C 1232.5 77.5 1246.5 63.5 1288.5 63.5 C 1386.5 63.5 1430.5 144.5 1443.5 249.5 ZM 1294.5 15.5 L 1094.5 15.5 L 1100.5 112.5 L 1103.5 249.5 L 1103.5 539.5 L 1094.5 687.5 L 1288.5 687.5 C 1311.5 687.5 1373.5 673.5 1386.5 669.5 C 1401.5 664.5 1416.5 658.5 1431.5 651.5 C 1468.5 635.5 1521.5 587.5 1540.5 548.5 C 1546.5 534.5 1553.5 521.5 1558.5 510.5 C 1565.5 492.5 1570.5 473.5 1574.5 457.5 C 1579.5 432.5 1583.5 406.5 1585.5 382.5 L 1585.5 309.5 C 1585.5 273.5 1571.5 212.5 1561.5 184.5 C 1556.5 168.5 1548.5 154.5 1541.5 140.5 C 1519.5 95.5 1458.5 50.5 1420.5 38.5 C 1397.5 31.5 1375.5 24.5 1354.5 21.5 L 1294.5 15.5 Z" fill="#ffffff"/>
		<path d="M 347.5 242.5 C 349.5 258.5 353.5 292.5 353.5 295.5 L 353.5 378.5 C 349.5 458.5 332.5 640.5 192.5 640.5 C 142.5 640.5 136.5 611.5 136.5 574.5 L 136.5 130.5 C 138.5 74.5 153.5 63.5 193.5 63.5 C 288.5 63.5 332.5 139.5 347.5 242.5 ZM 199.5 15.5 L -0.5 15.5 L 5.5 115.5 L 8.5 258.5 L 8.5 534.5 L -0.5 687.5 L 193.5 687.5 C 220.5 687.5 281.5 672.5 300.5 666.5 C 318.5 660.5 338.5 650.5 356.5 640.5 C 390.5 621.5 429.5 578.5 446.5 546.5 C 456.5 526.5 465.5 507.5 470.5 490.5 C 475.5 472.5 480.5 453.5 483.5 436.5 C 486.5 417.5 488.5 398.5 490.5 379.5 L 490.5 311.5 C 490.5 281.5 480.5 232.5 474.5 210.5 C 468.5 184.5 457.5 160.5 443.5 135.5 C 417.5 89.5 362.5 50.5 325.5 38.5 C 304.5 32.5 285.5 25.5 265.5 22.5 C 243.5 19.5 221.5 17.5 199.5 15.5 Z" fill="#ffffff"/>
		<path d="M 846.5 -0.5 C 890.5 2.5 939.5 13.5 983.5 31.5 L 983.5 140.5 C 980.5 143.5 980.5 147.5 977.5 147.5 C 974.5 147.5 971.5 145.5 970.5 143.5 C 958.5 125.5 941.5 102.5 922.5 86.5 C 885.5 55.5 845.5 44.5 810.5 44.5 C 772.5 44.5 708.5 53.5 708.5 115.5 C 708.5 240.5 1015.5 244.5 1015.5 444.5 C 1015.5 446.5 1015.5 452.5 1014.5 473.5 C 1013.5 478.5 1010.5 538.5 997.5 538.5 C 990.5 538.5 991.5 532.5 991.5 530.5 L 993.5 485.5 C 992.5 482.5 991.5 477.5 991.5 474.5 C 983.5 398.5 886.5 351.5 847.5 331.5 C 766.5 290.5 654.5 251.5 617.5 184.5 C 613.5 176.5 603.5 153.5 603.5 142.5 L 603.5 111.5 C 613.5 21.5 720.5 2.5 777.5 -0.5 L 846.5 -0.5 Z" fill="#ffffff"/>
	</g>
</svg>