<?xml version="1.0" standalone="no"?>
<!-- Generator: Adobe Fireworks 10, Export SVG Extension by Aaron Beall (http://fireworks.abeall.com) . Version: 0.6.1  -->
<!DOCTYPE svg PUBLIC "-//W3C//DTD SVG 1.1//EN" "http://www.w3.org/Graphics/SVG/1.1/DTD/svg11.dtd">
<svg id="Untitled-Page%201" viewBox="0 0 1023 581" style="background-color:#ffffff00" version="1.1"
	xmlns="http://www.w3.org/2000/svg" xmlns:xlink="http://www.w3.org/1999/xlink" xml:space="preserve"
	x="0px" y="0px" width="1023px" height="581px"
>
	<g id="Layer%201">
		<path d="M 615.5 330.5 C 614.5 332.5 592.5 396.5 592.5 410.5 C 592.5 434.5 614.5 437.5 629.5 437.5 C 695.5 437.5 688.5 387.5 713.5 330.5 L 785.5 330.5 C 781.5 342.5 776.5 355.5 773.5 367.5 C 772.5 370.5 770.5 375.5 769.5 380.5 C 751.5 456.5 669.5 466.5 620.5 466.5 C 599.5 466.5 573.5 462.5 554.5 456.5 C 540.5 452.5 519.5 435.5 519.5 421.5 L 519.5 404.5 L 543.5 330.5 L 615.5 330.5 Z" fill="#ffffff"/>
		<path d="M 968.5 329.5 C 986.5 331.5 1004.5 334.5 1022.5 338.5 C 1019.5 348.5 1015.5 359.5 1011.5 370.5 C 969.5 358.5 960.5 356.5 926.5 356.5 C 922.5 356.5 865.5 354.5 865.5 369.5 C 865.5 381.5 921.5 379.5 943.5 383.5 C 949.5 384.5 1006.5 385.5 1006.5 415.5 C 1006.5 458.5 913.5 468.5 898.5 468.5 L 839.5 468.5 C 809.5 464.5 777.5 461.5 747.5 447.5 C 754.5 439.5 767.5 429.5 775.5 418.5 C 806.5 431.5 852.5 441.5 886.5 441.5 C 890.5 441.5 931.5 441.5 931.5 427.5 C 931.5 407.5 791.5 429.5 791.5 381.5 C 791.5 335.5 898.5 328.5 903.5 329.5 L 968.5 329.5 Z" fill="#ffffff"/>
		<path d="M 508.5 380.5 C 508.5 420.5 466.5 451.5 424.5 461.5 C 405.5 465.5 381.5 469.5 363.5 469.5 C 361.5 469.5 338.5 467.5 326.5 465.5 L 338.5 431.5 C 344.5 437.5 360.5 440.5 370.5 440.5 C 408.5 440.5 435.5 414.5 435.5 381.5 C 435.5 356.5 407.5 357.5 397.5 357.5 C 383.5 357.5 368.5 358.5 355.5 368.5 C 338.5 380.5 336.5 396.5 330.5 410.5 C 308.5 465.5 293.5 523.5 275.5 580.5 C 245.5 570.5 224.5 549.5 224.5 525.5 C 224.5 507.5 259.5 403.5 264.5 393.5 C 291.5 334.5 361.5 328.5 406.5 328.5 C 430.5 328.5 508.5 329.5 508.5 380.5 Z" fill="#ffffff"/>
		<path d="M 174.5 382.5 C 174.5 385.5 170.5 397.5 168.5 405.5 C 165.5 415.5 148.5 432.5 138.5 434.5 C 128.5 436.5 120.5 438.5 111.5 438.5 C 97.5 438.5 73.5 438.5 73.5 414.5 C 73.5 411.5 75.5 400.5 77.5 394.5 C 87.5 364.5 117.5 357.5 137.5 357.5 C 151.5 357.5 174.5 359.5 174.5 382.5 ZM 248.5 380.5 C 248.5 328.5 169.5 328.5 146.5 328.5 C 103.5 328.5 44.5 331.5 9.5 382.5 C -0.5 396.5 -0.5 403.5 -0.5 416.5 C -0.5 467.5 79.5 468.5 101.5 468.5 C 143.5 468.5 204.5 462.5 238.5 413.5 C 245.5 402.5 248.5 391.5 248.5 380.5 Z" fill="#ffffff"/>
		<path d="M 614.5 2.5 L 589.5 79.5 C 570.5 72.5 572.5 73.5 557.5 73.5 C 518.5 73.5 492.5 99.5 492.5 131.5 C 492.5 157.5 522.5 159.5 535.5 159.5 C 595.5 159.5 599.5 111.5 613.5 67.5 C 615.5 61.5 618.5 54.5 619.5 48.5 C 621.5 42.5 624.5 34.5 625.5 29.5 C 627.5 21.5 631.5 12.5 633.5 4.5 L 639.5 4.5 C 677.5 10.5 757.5 30.5 757.5 91.5 C 757.5 106.5 750.5 127.5 740.5 143.5 C 694.5 213.5 600.5 226.5 539.5 226.5 L 506.5 225.5 C 489.5 223.5 471.5 221.5 453.5 218.5 C 447.5 234.5 441.5 251.5 436.5 268.5 C 399.5 256.5 356.5 206.5 350.5 172.5 C 350.5 168.5 348.5 162.5 348.5 160.5 L 348.5 122.5 C 375.5 14.5 494.5 -0.5 566.5 -0.5 C 568.5 -0.5 598.5 0.5 614.5 2.5 Z" fill="#ffffff"/>
	</g>
</svg>