<?xml version="1.0" encoding="utf-8"?>
<!-- Generator: Adobe Illustrator 21.1.0, SVG Export Plug-In . SVG Version: 6.00 Build 0)  -->
<svg version="1.1" id="Layer_1" xmlns="http://www.w3.org/2000/svg" xmlns:xlink="http://www.w3.org/1999/xlink" x="0px" y="0px"
	 viewBox="0 0 864 446" style="enable-background:new 0 0 864 446;" xml:space="preserve">
<style type="text/css">
	.st0{fill:#FFFFFF;}
</style>
<g id="roon_ready">
	<g>
		<path class="st0" d="M254.3,16.9c-63.7,0-115.5,54.7-115.5,121.9c0,66.3,51.8,120.2,115.5,120.2c63.9,0,115.9-53.9,115.9-120.2
			C370.2,71.6,318.2,16.9,254.3,16.9z M345.1,138.8c0,53.2-40.7,96.4-90.8,96.4s-90.8-43.3-90.8-96.4c0-54.1,40.7-98.2,90.8-98.2
			S345.1,84.7,345.1,138.8z"/>
		<path class="st0" d="M511.1,16.9c-63.7,0-115.5,54.7-115.5,121.9c0,66.3,51.8,120.2,115.5,120.2C575,259,627,205.1,627,138.8
			C627,71.6,575,16.9,511.1,16.9z M601.9,138.8c0,53.2-40.7,96.4-90.8,96.4s-90.8-43.3-90.8-96.4c0-54.1,40.7-98.2,90.8-98.2
			S601.9,84.7,601.9,138.8z"/>
		<path class="st0" d="M750.3,16.9c-56.9,0-98.2,41.3-98.2,98.2v131.7c0,6.8,5.5,12.3,12.3,12.3c6.8,0,12.3-5.5,12.3-12.3V115
			c0-42.3,30.9-73.1,73.5-73.1c42.3,0,73.1,30.7,73.1,73.1v131.7c0,6.8,5.5,12.3,12.3,12.3c6.8,0,12.3-5.5,12.3-12.3V115
			C848,58.2,806.9,16.9,750.3,16.9z"/>
		<path class="st0" d="M130.1,40.9c4.8-0.8,8.1-5.9,8.1-11.1c0-4.5-2.2-8.6-6.3-10.4c0,0-3-2.1-20-2.1C52.7,17.4,16,54.8,16,115
			v131.7c0,6.8,5.5,12.3,12.3,12.3s12.3-5.5,12.3-12.3V115c0-47.8,29.4-75.8,74-74.1C117.7,41.1,126.3,41.8,130.1,40.9z"/>
	</g>
	<g>
		<path class="st0" d="M473.3,302.4v5.6c-21.4-1.8-34.5,8.7-34.5,29.6v51.1h-6.1v-51.1C432.7,314.1,448,299.8,473.3,302.4z"/>
		<path class="st0" d="M520.1,390.7c-24.2,0-43.2-19.4-43.2-44c0-24.7,18.9-44.7,42.2-44.7c17.7,0,32.9,11.7,39.3,27.9l-73,30.7
			c5.4,14.5,18.9,24,34.7,24c19.9,0,28.9-11,33.7-22.2h6.4C553.8,380.6,540,390.7,520.1,390.7z M483.8,354.5l66.4-27.8
			c-6.2-11.3-17.9-19.1-31.1-19.1c-19.9,0-36.2,17.3-36.2,38.8C483,349.2,483.3,352,483.8,354.5z"/>
		<path class="st0" d="M659.5,388.7h-6.1v-20.4c-6.9,13.3-20.4,22.4-36.2,22.4c-23.3,0-42.2-19.7-42.2-44
			c0-24.7,18.9-44.7,42.2-44.7c23.3,0,42.2,20.1,42.2,44.7V388.7z M617.2,308.1c-19.9,0-36.2,17.3-36.2,38.5c0,20.9,16.3,38,36.2,38
			c19.9,0,36.2-17.1,36.2-38C653.4,325.4,637.1,308.1,617.2,308.1z"/>
		<path class="st0" d="M756.9,346.6c0,24.3-18.9,44-42.2,44c-23.3,0-42.2-19.7-42.2-44c0-24.7,18.9-44.7,42.2-44.7
			c15.8,0,29.3,9.2,36.2,22.7v-58.2h6.1V346.6z M714.7,308.1c-19.9,0-36.2,17.3-36.2,38.5c0,20.9,16.3,38,36.2,38
			c19.9,0,36.2-17.1,36.2-38C750.8,325.4,734.6,308.1,714.7,308.1z"/>
		<path class="st0" d="M844.7,394.6c0,20.9-14.5,35.5-35.3,35.5c-17.8,0-31.2-11.3-34.5-27.9h6.4c3,13,14,21.9,28.1,21.9
			c17.4,0,29.1-11.8,29.1-29.4v-19.9c-5.8,9.9-16.1,15.9-29.4,15.9c-20.5,0-35.5-15-35.5-35.5V304h6.1v51.1
			c0,17.1,12.5,29.4,29.4,29.4c17.1,0,29.4-12.3,29.4-29.4V304h6.2V394.6z"/>
	</g>
</g>
</svg>
