<?xml version="1.0" standalone="no"?>
<!-- Generator: Adobe Fireworks 10, Export SVG Extension by Aaron Beall (http://fireworks.abeall.com) . Version: 0.6.1  -->
<!DOCTYPE svg PUBLIC "-//W3C//DTD SVG 1.1//EN" "http://www.w3.org/Graphics/SVG/1.1/DTD/svg11.dtd">
<svg id="Untitled-Page%201" viewBox="0 0 3213 999" style="background-color:#ffffff00" version="1.1"
	xmlns="http://www.w3.org/2000/svg" xmlns:xlink="http://www.w3.org/1999/xlink" xml:space="preserve"
	x="0px" y="0px" width="3213px" height="999px"
>
	<g id="Layer%201">
		<path d="M 1426.5 285.5 C 1428.5 286.5 1494.5 318.5 1494.5 328.5 C 1494.5 331.5 1466.5 370.5 1451.5 390.5 C 1450.5 392.5 1449.5 393.5 1446.5 393.5 C 1444.5 393.5 1436.5 386.5 1431.5 383.5 C 1394.5 358.5 1359.5 347.5 1325.5 347.5 C 1299.5 347.5 1258.5 357.5 1258.5 397.5 C 1258.5 488.5 1507.5 428.5 1507.5 598.5 C 1507.5 673.5 1457.5 729.5 1363.5 737.5 C 1344.5 738.5 1338.5 738.5 1320.5 737.5 C 1307.5 735.5 1292.5 733.5 1279.5 730.5 C 1262.5 726.5 1245.5 721.5 1230.5 714.5 C 1211.5 706.5 1151.5 673.5 1151.5 660.5 C 1151.5 655.5 1202.5 599.5 1203.5 599.5 C 1205.5 599.5 1216.5 609.5 1224.5 614.5 C 1235.5 623.5 1248.5 631.5 1262.5 638.5 C 1291.5 654.5 1314.5 657.5 1343.5 657.5 C 1369.5 657.5 1403.5 655.5 1418.5 615.5 L 1418.5 595.5 C 1405.5 557.5 1362.5 552.5 1336.5 545.5 C 1305.5 536.5 1274.5 528.5 1243.5 516.5 C 1205.5 502.5 1170.5 457.5 1170.5 428.5 C 1170.5 426.5 1169.5 422.5 1169.5 420.5 L 1169.5 387.5 C 1171.5 376.5 1173.5 363.5 1178.5 352.5 C 1212.5 278.5 1275.5 268.5 1329.5 268.5 C 1364.5 268.5 1386.5 269.5 1426.5 285.5 Z" fill="#ffffff"/>
		<path d="M 2427.5 291.5 C 2428.5 292.5 2430.5 292.5 2430.5 295.5 L 2430.5 383.5 L 2515.5 383.5 C 2518.5 384.5 2521.5 385.5 2521.5 388.5 L 2521.5 454.5 C 2520.5 456.5 2520.5 458.5 2518.5 460.5 L 2430.5 460.5 L 2430.5 628.5 C 2436.5 657.5 2451.5 657.5 2467.5 657.5 C 2470.5 657.5 2480.5 657.5 2486.5 655.5 C 2495.5 653.5 2511.5 646.5 2514.5 646.5 C 2516.5 646.5 2517.5 647.5 2519.5 649.5 L 2519.5 717.5 C 2497.5 731.5 2467.5 737.5 2444.5 737.5 C 2410.5 737.5 2361.5 727.5 2347.5 675.5 C 2345.5 665.5 2342.5 646.5 2342.5 644.5 L 2342.5 460.5 L 2300.5 460.5 L 2300.5 386.5 C 2301.5 385.5 2301.5 383.5 2304.5 383.5 L 2342.5 383.5 L 2342.5 295.5 C 2343.5 294.5 2344.5 292.5 2345.5 291.5 L 2427.5 291.5 Z" fill="#ffffff"/>
		<path d="M 2657.5 284.5 C 2657.5 315.5 2631.5 340.5 2602.5 340.5 C 2599.5 340.5 2594.5 338.5 2590.5 338.5 C 2572.5 338.5 2547.5 310.5 2547.5 294.5 L 2547.5 275.5 C 2556.5 243.5 2578.5 230.5 2601.5 230.5 C 2632.5 230.5 2657.5 254.5 2657.5 284.5 ZM 2645.5 384.5 L 2645.5 728.5 L 2642.5 731.5 L 2560.5 731.5 L 2560.5 384.5 L 2645.5 384.5 Z" fill="#ffffff"/>
		<path d="M 2901.5 262.5 L 2901.5 332.5 C 2900.5 334.5 2898.5 335.5 2896.5 335.5 C 2892.5 335.5 2870.5 327.5 2852.5 327.5 C 2826.5 327.5 2811.5 340.5 2811.5 367.5 L 2811.5 384.5 L 2946.5 384.5 L 3039.5 622.5 L 3125.5 384.5 L 3210.5 384.5 C 3211.5 385.5 3213.5 386.5 3213.5 389.5 C 3213.5 391.5 3190.5 447.5 3179.5 476.5 C 3170.5 500.5 3160.5 526.5 3150.5 551.5 C 3128.5 609.5 3104.5 667.5 3082.5 727.5 C 3051.5 808.5 3022.5 835.5 2961.5 835.5 C 2937.5 835.5 2910.5 832.5 2888.5 818.5 C 2884.5 816.5 2877.5 815.5 2877.5 809.5 C 2877.5 807.5 2883.5 795.5 2886.5 788.5 C 2889.5 782.5 2902.5 747.5 2909.5 747.5 C 2911.5 747.5 2918.5 751.5 2924.5 753.5 C 2933.5 757.5 2944.5 760.5 2954.5 760.5 C 2971.5 760.5 2985.5 752.5 2996.5 726.5 L 2884.5 460.5 L 2813.5 460.5 L 2813.5 725.5 C 2812.5 728.5 2811.5 730.5 2809.5 731.5 L 2728.5 731.5 L 2725.5 728.5 L 2725.5 460.5 L 2685.5 460.5 C 2688.5 385.5 2685.5 384.5 2686.5 383.5 L 2725.5 383.5 L 2725.5 350.5 C 2734.5 268.5 2781.5 251.5 2835.5 251.5 C 2856.5 251.5 2879.5 253.5 2901.5 262.5 Z" fill="#ffffff"/>
		<path d="M 1807.5 557.5 C 1807.5 608.5 1778.5 660.5 1717.5 660.5 C 1677.5 660.5 1638.5 633.5 1627.5 582.5 C 1626.5 578.5 1625.5 570.5 1625.5 568.5 L 1625.5 547.5 C 1631.5 487.5 1672.5 455.5 1717.5 455.5 C 1780.5 455.5 1807.5 511.5 1807.5 557.5 ZM 1897.5 557.5 C 1897.5 469.5 1844.5 377.5 1735.5 377.5 C 1699.5 377.5 1663.5 384.5 1627.5 428.5 L 1626.5 389.5 C 1626.5 385.5 1622.5 384.5 1620.5 383.5 L 1543.5 383.5 C 1540.5 383.5 1540.5 385.5 1539.5 386.5 L 1539.5 833.5 L 1623.5 833.5 L 1626.5 830.5 L 1626.5 690.5 C 1663.5 728.5 1699.5 738.5 1734.5 738.5 C 1828.5 738.5 1897.5 665.5 1897.5 557.5 Z" fill="#ffffff"/>
		<path d="M 2204.5 558.5 C 2204.5 614.5 2166.5 660.5 2108.5 660.5 C 2045.5 660.5 2011.5 608.5 2011.5 557.5 C 2011.5 504.5 2045.5 456.5 2106.5 456.5 C 2167.5 456.5 2204.5 504.5 2204.5 558.5 ZM 2292.5 557.5 C 2292.5 452.5 2209.5 377.5 2107.5 377.5 C 2028.5 377.5 1942.5 422.5 1923.5 539.5 L 1923.5 578.5 C 1923.5 580.5 1927.5 604.5 1931.5 616.5 C 1961.5 703.5 2041.5 739.5 2106.5 739.5 C 2204.5 739.5 2292.5 666.5 2292.5 557.5 Z" fill="#ffffff"/>
		<path d="M 450.5 600.5 C 468.5 601.5 485.5 602.5 502.5 604.5 C 528.5 607.5 560.5 614.5 587.5 621.5 C 629.5 632.5 677.5 652.5 720.5 679.5 C 729.5 685.5 733.5 696.5 733.5 704.5 C 733.5 723.5 716.5 735.5 702.5 735.5 C 699.5 735.5 693.5 734.5 690.5 732.5 C 665.5 719.5 641.5 705.5 618.5 696.5 C 548.5 669.5 488.5 661.5 422.5 661.5 L 382.5 662.5 C 358.5 664.5 332.5 666.5 308.5 670.5 C 286.5 673.5 242.5 683.5 240.5 683.5 C 222.5 683.5 209.5 669.5 209.5 652.5 C 209.5 644.5 212.5 632.5 222.5 627.5 C 236.5 619.5 255.5 617.5 272.5 614.5 C 311.5 606.5 353.5 601.5 394.5 600.5 L 450.5 600.5 ZM 447.5 437.5 C 468.5 438.5 489.5 440.5 510.5 442.5 C 542.5 446.5 580.5 453.5 613.5 462.5 C 667.5 477.5 725.5 495.5 780.5 533.5 C 793.5 542.5 795.5 553.5 795.5 564.5 C 795.5 586.5 776.5 603.5 756.5 603.5 C 742.5 603.5 731.5 592.5 715.5 584.5 C 703.5 578.5 689.5 572.5 678.5 566.5 C 630.5 541.5 506.5 514.5 444.5 514.5 L 384.5 514.5 C 352.5 516.5 322.5 518.5 291.5 525.5 C 288.5 525.5 236.5 540.5 227.5 540.5 C 205.5 540.5 188.5 522.5 188.5 501.5 C 188.5 489.5 197.5 471.5 212.5 466.5 C 268.5 447.5 325.5 440.5 383.5 437.5 L 447.5 437.5 ZM 467.5 265.5 C 491.5 267.5 515.5 268.5 538.5 270.5 C 583.5 275.5 630.5 283.5 676.5 295.5 C 731.5 309.5 792.5 330.5 848.5 366.5 C 850.5 367.5 853.5 371.5 855.5 374.5 C 862.5 382.5 865.5 393.5 865.5 403.5 C 865.5 429.5 843.5 449.5 819.5 449.5 C 816.5 449.5 805.5 447.5 800.5 444.5 C 704.5 390.5 606.5 369.5 510.5 360.5 C 501.5 359.5 483.5 358.5 480.5 358.5 L 372.5 358.5 C 360.5 359.5 346.5 360.5 334.5 361.5 C 314.5 364.5 292.5 366.5 272.5 370.5 C 263.5 371.5 216.5 386.5 200.5 386.5 C 171.5 386.5 155.5 363.5 155.5 340.5 C 155.5 324.5 160.5 309.5 181.5 298.5 C 188.5 294.5 198.5 292.5 206.5 290.5 C 219.5 286.5 235.5 283.5 250.5 280.5 C 294.5 271.5 339.5 267.5 385.5 265.5 L 467.5 265.5 ZM 999.5 499.5 C 999.5 225.5 778.5 0.5 499.5 0.5 C 316.5 0.5 104.5 101.5 21.5 354.5 C 8.5 394.5 2.5 436.5 0.5 476.5 L 0.5 523.5 C 0.5 525.5 4.5 573.5 9.5 597.5 C 12.5 612.5 16.5 627.5 20.5 642.5 C 99.5 893.5 315.5 999.5 499.5 999.5 C 773.5 999.5 999.5 778.5 999.5 499.5 Z" fill="#ffffff"/>
	</g>
</svg>