<?xml version="1.0" standalone="no"?>
<!DOCTYPE svg PUBLIC "-//W3C//DTD SVG 20010904//EN"
 "http://www.w3.org/TR/2001/REC-SVG-20010904/DTD/svg10.dtd">
<svg version="1.0" xmlns="http://www.w3.org/2000/svg"
 width="900.000000pt" height="336.000000pt" viewBox="0 0 900.000000 336.000000"
 preserveAspectRatio="xMidYMid meet">
<metadata>
Created by potrace 1.10, written by Peter Selinger 2001-2011
</metadata>
<g transform="translate(0.000000,336.000000) scale(0.100000,-0.100000)"
fill="#ffffff" stroke="none">
<path d="M4920 3178 c-124 -4 -310 -15 -415 -23 -203 -15 -273 -32 -369 -89
-64 -37 -176 -152 -183 -187 -3 -16 -11 -34 -19 -40 -7 -6 -16 -27 -20 -48 -4
-20 -14 -49 -22 -66 -21 -42 -41 -149 -53 -285 -5 -63 -17 -200 -25 -305 -26
-300 -13 -939 26 -1295 26 -242 91 -415 191 -510 128 -122 256 -160 614 -180
99 -5 247 -14 329 -20 388 -26 1892 -19 2266 9 74 6 205 15 290 21 151 10 279
35 302 58 7 7 17 12 23 12 20 0 131 87 162 126 52 67 123 216 123 259 0 14 7
42 16 63 10 22 20 85 25 152 4 63 13 153 20 200 17 119 18 1063 1 1215 -7 61
-17 164 -22 230 -4 69 -15 136 -24 157 -9 21 -16 46 -16 57 0 23 -55 163 -78
201 -58 92 -185 200 -252 215 -19 4 -47 13 -61 21 -14 7 -70 15 -123 18 -54 3
-101 8 -106 11 -39 24 -2048 42 -2600 23z m184 -484 c13 -12 16 -40 16 -143 0
-174 9 -166 -174 -166 -80 -1 -149 -4 -153 -9 -4 -4 -8 -380 -8 -835 0 -693
-2 -831 -14 -845 -12 -14 -33 -16 -160 -14 l-146 3 -3 840 c-1 567 -6 843 -13
850 -6 6 -57 9 -135 6 -179 -5 -174 -9 -174 167 0 94 4 142 12 150 9 9 128 12
474 12 407 0 464 -2 478 -16z m1226 -4 c8 -14 11 -115 9 -306 -1 -156 1 -287
4 -291 3 -3 27 13 53 36 71 63 140 91 220 91 77 0 127 -23 172 -79 46 -58 62
-97 73 -179 5 -42 13 -97 17 -122 10 -65 -4 -862 -17 -945 -19 -125 -92 -208
-195 -225 -64 -10 -161 3 -187 26 -8 8 -19 14 -24 14 -5 0 -30 18 -56 40 -26
22 -50 40 -53 40 -3 0 -6 -24 -8 -53 l-3 -52 -139 -3 c-105 -2 -141 1 -148 10
-9 15 -11 1978 -2 2002 5 14 27 16 140 16 124 0 134 -1 144 -20z m1272 -491
c86 -42 104 -52 136 -83 42 -39 77 -92 86 -131 4 -16 14 -37 21 -45 31 -35 37
-540 6 -559 -7 -5 -122 -7 -255 -6 -172 2 -243 0 -248 -9 -4 -6 -8 -81 -8
-166 0 -131 3 -162 19 -197 32 -69 102 -92 152 -50 41 34 51 62 58 168 3 53 8
100 11 103 3 2 63 6 134 7 165 3 160 9 153 -161 -4 -115 -7 -130 -35 -185 -34
-65 -113 -148 -177 -184 -50 -29 -179 -42 -282 -30 -168 21 -290 149 -337 354
-13 57 -16 133 -16 405 1 362 11 455 60 564 25 54 150 186 178 186 9 1 33 9
52 20 53 29 232 28 292 -1z m-2271 -9 c18 -10 19 -28 19 -613 0 -529 2 -605
16 -625 8 -12 19 -22 25 -22 22 0 91 53 119 92 l30 41 0 550 c0 498 2 552 17
569 14 16 33 18 144 18 117 0 129 -2 139 -19 11 -22 15 -1414 4 -1470 l-6 -31
-139 0 c-131 0 -139 1 -150 21 -6 12 -9 37 -6 56 8 46 -17 57 -48 21 -69 -80
-187 -128 -279 -113 -77 13 -116 45 -155 125 l-26 55 -3 668 -3 667 23 10 c32
12 255 12 279 0z"/>
<path d="M6419 1933 c-15 -2 -39 -17 -54 -33 l-27 -29 0 -424 c0 -233 3 -433
6 -444 7 -22 96 -73 126 -73 10 0 34 16 54 35 l36 35 0 441 0 441 -29 29 c-29
29 -46 32 -112 22z"/>
<path d="M7376 1915 c-29 -31 -36 -64 -36 -175 0 -59 4 -90 13 -96 6 -5 57 -9
112 -9 l100 0 -1 105 c-2 113 -18 171 -53 190 -11 5 -40 10 -66 10 -36 0 -51
-5 -69 -25z"/>
<path d="M1637 2700 c-141 -6 -141 -5 -151 -74 -4 -22 -15 -68 -26 -101 -10
-33 -28 -98 -40 -145 -11 -47 -28 -110 -37 -140 -9 -30 -26 -99 -39 -154 -23
-100 -36 -128 -53 -110 -11 12 -37 97 -46 149 -4 22 -15 67 -25 100 -49 153
-60 193 -60 208 0 15 -19 91 -53 210 -6 21 -18 42 -28 48 -10 5 -76 9 -147 9
-101 0 -131 -3 -135 -14 -6 -15 4 -61 27 -121 8 -22 15 -49 16 -61 0 -11 4
-24 9 -30 5 -5 19 -43 31 -84 28 -99 55 -184 101 -325 10 -33 19 -67 19 -75 1
-8 9 -33 20 -55 11 -22 19 -50 20 -63 0 -13 6 -35 14 -50 8 -15 18 -45 22 -67
4 -22 15 -58 25 -80 10 -22 19 -51 19 -65 0 -14 8 -38 18 -55 15 -27 18 -74
22 -440 l5 -410 133 -3 c72 -1 133 -1 134 0 1 2 5 190 8 418 4 365 7 419 22
450 10 19 22 53 27 75 9 39 12 50 45 150 26 78 56 176 68 220 6 22 16 56 24
75 7 19 27 82 44 140 18 58 38 120 46 138 8 18 14 41 14 52 0 11 6 34 14 52
28 65 67 199 61 208 -13 21 -45 25 -168 20z"/>
<path d="M2020 2189 c-65 -22 -146 -81 -171 -124 -41 -68 -48 -84 -68 -167
-21 -83 -22 -103 -18 -490 3 -385 4 -406 25 -467 13 -36 32 -79 43 -97 30 -49
103 -110 168 -140 50 -24 68 -27 166 -27 102 0 114 2 165 28 68 35 142 104
174 161 49 87 56 163 56 573 0 299 -3 391 -15 450 -33 158 -118 257 -255 301
-84 26 -195 25 -270 -1z m184 -240 c14 -7 38 -30 53 -53 l28 -41 3 -395 c2
-266 0 -407 -8 -432 -6 -20 -26 -53 -44 -73 -72 -76 -177 -29 -191 86 -3 29
-5 227 -3 439 3 427 4 431 68 462 42 20 61 22 94 7z"/>
<path d="M2787 2184 c-4 -4 -7 -305 -7 -668 0 -749 -3 -723 77 -797 42 -38 44
-39 118 -39 86 0 144 23 205 83 19 18 47 41 61 51 33 21 48 7 46 -46 -2 -61
11 -68 132 -68 70 0 111 4 119 12 17 17 17 1449 0 1466 -15 15 -234 17 -243 2
-3 -5 -6 -253 -6 -551 1 -615 6 -573 -84 -658 -58 -55 -99 -66 -129 -35 -9 8
-17 16 -18 17 -2 1 -5 279 -8 617 l-5 615 -126 3 c-69 1 -128 -1 -132 -4z"/>
</g>
</svg>
