<?xml version="1.0" standalone="no"?>
<!DOCTYPE svg PUBLIC "-//W3C//DTD SVG 20010904//EN"
 "http://www.w3.org/TR/2001/REC-SVG-20010904/DTD/svg10.dtd">
<svg version="1.0" xmlns="http://www.w3.org/2000/svg"
 width="512.000000pt" height="512.000000pt" viewBox="0 0 512.000000 512.000000"
 preserveAspectRatio="xMidYMid meet">
<metadata>
Created by potrace 1.11, written by Peter Selinger 2001-2013
</metadata>
<g transform="translate(0.000000,512.000000) scale(0.100000,-0.100000)"
fill="#000000" stroke="none">
<path d="M2427 5044 c-1 -1 -42 -4 -92 -8 -49 -4 -115 -11 -145 -16 -30 -5
-70 -12 -88 -15 -137 -23 -360 -90 -520 -157 -469 -195 -886 -548 -1151 -976
-28 -45 -51 -84 -51 -86 0 -3 -13 -27 -28 -53 -85 -143 -206 -487 -238 -673
-2 -14 -7 -36 -10 -50 -23 -98 -37 -261 -38 -440 -2 -226 5 -295 55 -539 119
-574 449 -1099 912 -1450 248 -187 554 -338 847 -416 47 -13 232 -54 270 -60
48 -8 62 -10 185 -21 147 -14 440 -7 530 11 11 3 38 7 60 10 177 24 394 86
584 167 376 158 747 442 993 759 74 95 158 215 158 224 0 4 8 19 19 33 90 128
246 492 277 649 1 6 11 51 22 100 61 263 75 635 32 888 -6 33 -13 76 -16 95
-3 19 -18 87 -34 150 -193 770 -772 1426 -1505 1704 -55 21 -109 42 -120 47
-19 7 -124 38 -155 44 -8 2 -53 13 -100 24 -47 11 -110 23 -140 26 -30 4 -57
8 -60 10 -17 10 -442 28 -453 19z m283 -628 c660 -59 1230 -450 1515 -1041 71
-148 128 -312 150 -435 32 -172 34 -205 31 -405 -4 -215 -7 -242 -33 -355 -8
-36 -16 -72 -18 -80 -22 -102 -88 -274 -153 -400 -115 -221 -280 -423 -466
-574 -302 -244 -635 -382 -1016 -422 -77 -8 -296 -8 -348 0 -20 3 -57 8 -82
11 -603 79 -1135 464 -1410 1020 -77 157 -124 287 -149 410 -39 197 -47 271
-45 435 1 131 4 161 24 265 5 28 11 61 14 75 19 111 87 318 149 449 279 595
876 1003 1532 1047 50 4 91 7 92 8 4 3 146 -2 213 -8z"/>
<path d="M1790 4050 c-77 -11 -117 -36 -159 -98 -30 -43 -39 -134 -19 -182 8
-19 91 -166 183 -325 93 -160 175 -301 182 -315 8 -14 24 -41 36 -61 12 -20
50 -86 85 -147 64 -113 101 -154 159 -179 144 -60 306 60 291 216 -4 36 -20
76 -64 152 -32 57 -71 124 -85 149 -221 385 -415 711 -437 733 -40 39 -116 65
-172 57z"/>
</g>
</svg>
